<svg xmlns="http://www.w3.org/2000/svg" xmlns:xlink="http://www.w3.org/1999/xlink"><defs><symbol viewBox="0 0 32 32" fill="none" id="ic-brand-ctrader"><path d="M6 0a6 6 0 00-6 6v.174l29.914-4.721A5.977 5.977 0 0026 0H6zM30.532 2.068L25.044 32H26a6 6 0 006-6V6c0-1.504-.554-2.88-1.468-3.932z" fill="#B51E1E" /><path fill-rule="evenodd" clip-rule="evenodd" d="M25.044 32H6a6 6 0 01-6-6V6.174l29.914-4.721c.22.19.427.395.617.615L25.044 32z" fill="#E22526" /><path d="M9.007 17.071c0-.532.084-1.031.252-1.498a3.596 3.596 0 011.946-2.072c.466-.205.998-.308 1.596-.308.392 0 .751.037 1.078.112.327.065.644.163.952.294l-.434 1.666a5.27 5.27 0 00-.644-.196 3.366 3.366 0 00-.784-.084c-.616 0-1.078.191-1.386.574-.299.383-.448.887-.448 1.512 0 .663.14 1.176.42 1.54.29.364.789.546 1.498.546.252 0 .522-.023.812-.07.29-.047.555-.121.798-.224l.294 1.708a4.887 4.887 0 01-.91.266 6 6 0 01-1.204.112c-.672 0-1.25-.098-1.736-.294a3.411 3.411 0 01-1.204-.826 3.329 3.329 0 01-.686-1.218c-.14-.476-.21-.99-.21-1.54zM22.993 11.051v1.862h-2.926v7.84h-2.184v-7.84h-2.926v-1.862h8.036z" fill="#fff" /></symbol><symbol viewBox="0 0 265 38" fill="none" id="ic-brand-ctrader-wordmark"><path fill-rule="evenodd" clip-rule="evenodd" d="M20.739 2.568l-1.772 10.05h-6.152c-5.74 0-11.21 4.65-12.224 10.39l-.43 2.443c-1.009 5.74 2.82 10.39 8.56 10.39h5.131c4.183 0 8.168-3.386 8.904-7.57l4.726-26.787-6.743 1.084zm-4.365 24.756c-.227 1.292-1.39 2.344-2.682 2.344h-3.117c-2.58 0-4.306-2.094-3.854-4.679l.27-1.523c.457-2.58 2.919-4.679 5.498-4.679h5.39l-1.505 8.537z" fill="#FF444F" /><path d="M68.118 35.843h6.385L78.54 12.94h-6.385l-4.037 22.902zM68.33 15.927l.002-.006.479-2.716c-6.552-1.688-11.656.058-13.734.919l-3.832 21.724h6.39l3.109-17.643c.959-.191 4.08-.49 7.105.45l.482-2.728z" fill="#FF444F" /><path fill-rule="evenodd" clip-rule="evenodd" d="M42.914 12.616h-4.966c-4.844 0-9.46 3.924-10.314 8.768l-1.005 5.692c-.854 4.843 2.377 8.767 7.22 8.767h10.574l1.085-6.154H35.57c-1.613 0-2.693-1.306-2.405-2.924l.033-.194h16.02l.915-5.187c.854-4.844-2.377-8.768-7.22-8.768zm.81 8.277l-.037.33h-9.526l.052-.292c.287-1.613 1.759-3.033 3.376-3.033h3.721c1.6 0 2.68 1.396 2.415 2.995z" fill="#FF444F" /><path d="M89.638 28.047c2.9-5.216 6.096-12.06 7.428-15.106h6.395c-2.177 5.787-7.165 15.632-11.998 22.902h-6.39c-2.218-6.919-3.65-16.559-3.924-22.902h6.39c.116 2.07 1.042 9.744 2.1 15.106z" fill="#FF444F" /><path d="M110.125 24.24c0-1.796.284-3.481.851-5.056.598-1.607 1.449-2.993 2.551-4.159 1.103-1.197 2.442-2.142 4.017-2.835 1.575-.692 3.37-1.039 5.386-1.039 1.323 0 2.536.126 3.638.378 1.103.22 2.174.551 3.213.992l-1.464 5.623a17.752 17.752 0 00-2.174-.661c-.787-.19-1.669-.284-2.646-.284-2.079 0-3.638.646-4.678 1.937-1.008 1.292-1.512 2.993-1.512 5.103 0 2.237.473 3.97 1.418 5.198.976 1.228 2.662 1.842 5.056 1.842.85 0 1.764-.078 2.74-.236.977-.157 1.874-.41 2.693-.756l.993 5.765c-.819.346-1.843.645-3.072.898-1.228.252-2.583.377-4.063.377-2.268 0-4.221-.33-5.859-.992-1.638-.693-2.993-1.622-4.064-2.788-1.039-1.165-1.811-2.535-2.315-4.11-.472-1.607-.709-3.34-.709-5.198zM157.328 3.922v6.284h-9.875v26.46h-7.371v-26.46h-9.875V3.922h27.121z" fill="#fff" /><path d="M170.933 18.05a37.363 37.363 0 00-2.221-.473 12.623 12.623 0 00-2.741-.284 11.1 11.1 0 00-1.606.142c-.599.063-1.055.142-1.37.237v18.994h-7.041v-23.53c1.26-.441 2.741-.851 4.442-1.229 1.732-.41 3.654-.614 5.764-.614.378 0 .835.031 1.371.094.535.032 1.071.095 1.606.19.536.062 1.071.157 1.607.283.535.094.992.22 1.37.378l-1.181 5.811zM182.561 31.752c.693 0 1.355-.016 1.985-.047.63-.032 1.134-.079 1.512-.142v-5.34a13.03 13.03 0 00-1.276-.188 14.21 14.21 0 00-1.559-.095c-.662 0-1.292.047-1.89.142a4.456 4.456 0 00-1.512.425c-.441.22-.788.52-1.04.898s-.378.85-.378 1.418c0 1.102.362 1.874 1.087 2.315.756.41 1.78.614 3.071.614zm-.567-20.601c2.079 0 3.812.236 5.198.709 1.386.472 2.488 1.15 3.307 2.032.851.882 1.449 1.953 1.796 3.213.346 1.26.519 2.661.519 4.205v14.647c-1.008.22-2.409.473-4.205.756-1.795.315-3.969.473-6.52.473-1.607 0-3.072-.142-4.395-.425-1.291-.284-2.409-.74-3.354-1.37a6.557 6.557 0 01-2.174-2.552c-.504-1.04-.756-2.316-.756-3.827 0-1.45.284-2.678.851-3.686a6.923 6.923 0 012.362-2.41c.977-.598 2.095-1.024 3.355-1.276a17.813 17.813 0 013.922-.425c.913 0 1.716.047 2.409.142.725.063 1.308.158 1.749.284v-.662c0-1.197-.363-2.158-1.087-2.882-.725-.725-1.985-1.087-3.78-1.087a22.11 22.11 0 00-3.544.284c-1.165.157-2.173.393-3.024.708l-.898-5.67c.41-.126.914-.252 1.512-.378.63-.157 1.308-.283 2.032-.378a24.81 24.81 0 012.268-.283 21.418 21.418 0 012.457-.142zM202.819 24.05c0 2.174.488 3.922 1.465 5.245.976 1.323 2.425 1.984 4.347 1.984.63 0 1.212-.015 1.748-.047.535-.063.976-.126 1.323-.189V18.238c-.441-.283-1.024-.52-1.748-.708a8.048 8.048 0 00-2.127-.284c-3.339 0-5.008 2.268-5.008 6.804zm15.923 11.813c-.63.189-1.354.378-2.173.567-.819.157-1.686.299-2.599.425a36.61 36.61 0 01-2.741.284c-.913.094-1.795.141-2.646.141-2.047 0-3.874-.299-5.481-.898-1.606-.598-2.961-1.448-4.063-2.551-1.103-1.134-1.953-2.489-2.552-4.064-.567-1.606-.85-3.401-.85-5.386 0-2.016.252-3.827.756-5.434.504-1.638 1.228-3.024 2.173-4.158a9.347 9.347 0 013.45-2.598c1.386-.599 2.961-.898 4.725-.898.976 0 1.842.094 2.598.283.788.19 1.575.457 2.363.803V1.135L218.742 0v35.863zM221.791 24.428c0-2.205.33-4.126.992-5.764.693-1.67 1.591-3.056 2.693-4.158a11.172 11.172 0 013.78-2.505c1.449-.566 2.93-.85 4.442-.85 3.528 0 6.315 1.087 8.363 3.26 2.047 2.142 3.071 5.308 3.071 9.498 0 .409-.016.866-.047 1.37-.032.472-.063.898-.095 1.276h-15.97c.157 1.448.835 2.598 2.032 3.449 1.197.85 2.803 1.275 4.819 1.275 1.292 0 2.552-.11 3.78-.33 1.26-.252 2.284-.552 3.071-.898l.945 5.717c-.378.19-.882.378-1.512.567-.63.19-1.338.347-2.126.473-.756.157-1.575.283-2.457.378a24.82 24.82 0 01-2.646.142c-2.236 0-4.189-.331-5.859-.993-1.638-.661-3.008-1.559-4.111-2.693-1.071-1.166-1.874-2.536-2.409-4.11-.504-1.576-.756-3.277-.756-5.104zm16.537-2.693a6.58 6.58 0 00-.331-1.748 3.89 3.89 0 00-.803-1.512c-.346-.441-.803-.803-1.37-1.087-.536-.284-1.213-.425-2.032-.425-.787 0-1.465.142-2.032.425a3.945 3.945 0 00-1.417 1.04c-.378.44-.677.96-.898 1.559-.189.567-.331 1.15-.425 1.748h9.308zM263.181 18.05c-.63-.158-1.37-.316-2.221-.473a12.613 12.613 0 00-2.74-.284c-.441 0-.977.048-1.607.142-.598.063-1.055.142-1.37.237v18.994h-7.04v-23.53c1.26-.441 2.74-.851 4.441-1.229 1.733-.41 3.654-.614 5.765-.614.378 0 .834.031 1.37.094.535.032 1.071.095 1.606.19.536.062 1.071.157 1.607.283.535.094.992.22 1.37.378l-1.181 5.811z" fill="#fff" /></symbol><symbol viewBox="0 0 149 16" id="ic-brand-deriv"><g fill="none"><path fill="#21CE99" d="M3.673.002V.02L9.78 7.945.004 15.868v.017h9.872a6.197 6.197 0 0 0 6.03-4.785l.817-3.533a6.177 6.177 0 0 0-1.191-5.229A6.204 6.204 0 0 0 10.695.002H3.673z" data-theme="none" /><path fill="#11825C" d="m9.774 7.96-4.295 7.925H0z" data-theme="none" /><path fill="var(--fill-color1)" d="M23.757.002h6.156c4.966 0 7.797 3.413 7.014 7.84v.045c-.784 4.44-4.825 7.893-9.79 7.893h-6.164L23.757.002zm3.929 12.64c2.845 0 5.103-1.92 5.596-4.71v-.045c.492-2.793-1.068-4.753-3.925-4.753h-2.685l-1.675 9.508h2.689zM41.637.002h11.92l-.545 3.096h-8.466l-.566 3.2h5.464l-.545 3.084h-5.465l-.585 3.316h8.578l-.545 3.084h-12.03zm23.359 10.136c2.137-.743 3.798-2.347 4.25-4.888v-.045c.262-1.493 0-2.726-.717-3.605C67.674.563 66.214 0 64.207 0H56.98l-2.779 15.77h3.476l2.234-12.638h3.453c1.693 0 2.597.766 2.334 2.253v.044c-.235 1.33-1.364 2.232-3.057 2.232h-2.619l3.782 8.106h4.062l-2.871-5.63zM73.694.002h3.476l-2.779 15.77h-3.476zm6.298 0h3.848l2.167 11.106L92.102.002h3.748l-9.193 15.883H83.57zm44.244 9.873a1.022 1.022 0 0 0-.352.051 1.226 1.226 0 0 0-.287.133.775.775 0 0 0-.213.194l-.052.053v-.365h-.874v3.294h.874v-1.837a.722.722 0 0 1 .182-.52.584.584 0 0 1 .457-.181.522.522 0 0 1 .445.18c.112.15.167.335.156.521v1.863h.874v-2.097a1.298 1.298 0 0 0-.314-.924 1.156 1.156 0 0 0-.896-.365zm3.199.025a2.493 2.493 0 0 0-.678.08c-.187.053-.37.118-.55.194l-.05.028.234.701.064-.025c.144-.051.274-.105.428-.143.15-.038.303-.055.457-.051a.814.814 0 0 1 .535.155.497.497 0 0 1 .17.427 2.53 2.53 0 0 0-.3-.064 2.48 2.48 0 0 0-1.018.026 1.093 1.093 0 0 0-.428.213.945.945 0 0 0-.288.35 1.165 1.165 0 0 0-.103.482v-.002c-.001.158.034.314.103.456.066.125.155.236.263.327.11.093.239.16.378.194.148.044.301.066.455.066a1.38 1.38 0 0 0 .642-.143c.111-.06.217-.132.314-.213v.286h.855v-1.94a1.38 1.38 0 0 0-.365-1.03 1.524 1.524 0 0 0-1.118-.373zm-.144 2.723a.722.722 0 0 1-.39-.105.326.326 0 0 1-.144-.285v-.013a.343.343 0 0 1 .156-.299.893.893 0 0 1 .496-.117c.127 0 .254.012.378.038.105.026.195.039.274.064v.132a.445.445 0 0 1-.051.233.549.549 0 0 1-.159.183 1.07 1.07 0 0 1-.248.13 1.285 1.285 0 0 1-.312.039zm6.069-.469-.855-2.213h-.928l1.345 3.217a.602.602 0 0 1-.156.233.362.362 0 0 1-.214.066 1.013 1.013 0 0 1-.194-.026l-.197-.078-.064-.039-.301.664.053.025c.112.06.23.108.35.145.14.04.284.057.428.051.124.004.248-.013.366-.05.109-.04.21-.098.299-.171.096-.083.18-.18.248-.286.08-.138.151-.28.214-.427l1.282-3.332h-.9l-.776 2.22zm5.678.015a1.43 1.43 0 0 1-.353.273.876.876 0 0 1-1.235-.47 1.092 1.092 0 0 1-.066-.365v-.012c0-.242.083-.476.235-.664a.951.951 0 0 1 .26-.196.739.739 0 0 1 .34-.079.882.882 0 0 1 .428.105c.128.071.242.164.34.273l.053.053.548-.587-.039-.05a1.765 1.765 0 0 0-.536-.406 1.741 1.741 0 0 0-.77-.156c-.233 0-.464.049-.678.143a2.055 2.055 0 0 0-.55.365 1.55 1.55 0 0 0-.352.548 1.9 1.9 0 0 0-.13.663v.024c-.003.228.041.454.13.663.087.201.206.387.353.549.159.154.345.278.55.364.213.091.444.136.677.13.276.011.55-.047.797-.168.207-.115.392-.265.548-.444l.038-.05-.534-.524-.054.018zm3.85-1.786a1.71 1.71 0 0 0-.562-.365 1.741 1.741 0 0 0-.705-.13c-.468 0-.918.182-1.253.508a1.785 1.785 0 0 0-.366.548c-.089.21-.133.436-.13.663v.024c-.003.228.041.454.13.663.086.204.21.39.366.549a1.713 1.713 0 0 0 1.24.495c.242-.002.481-.05.705-.143.21-.083.4-.207.56-.365a1.69 1.69 0 0 0 .366-.548c.09-.21.134-.436.13-.664v-.013a1.612 1.612 0 0 0-.13-.663 1.35 1.35 0 0 0-.35-.56zm-1.255 2.163a.777.777 0 0 1-.35-.079 1.056 1.056 0 0 1-.289-.213.87.87 0 0 1-.182-.299 1.148 1.148 0 0 1-.066-.365v-.012c.002-.242.085-.477.235-.666.081-.078.173-.144.274-.194a.784.784 0 0 1 .366-.08.87.87 0 0 1 .654.293.766.766 0 0 1 .181.299c.042.117.064.24.067.365v.012a1.148 1.148 0 0 1-.067.365.87.87 0 0 1-.181.299.806.806 0 0 1-.276.196.797.797 0 0 1-.366.08zm6.854-2.332a1.13 1.13 0 0 0-.855-.339c-.23-.008-.456.05-.652.169-.153.09-.29.205-.406.339a1.046 1.046 0 0 0-.338-.34 1.193 1.193 0 0 0-.614-.168.906.906 0 0 0-.34.051.882.882 0 0 0-.273.133c-.078.052-.15.113-.214.181a.177.177 0 0 1-.053.051v-.35h-.888v3.294h.875v-1.837a.773.773 0 0 1 .17-.533.511.511 0 0 1 .428-.181.5.5 0 0 1 .428.168c.112.15.168.334.156.52v1.863h.874v-1.837a.729.729 0 0 1 .17-.533.571.571 0 0 1 .427-.181.514.514 0 0 1 .427.168.782.782 0 0 1 .156.534v1.862h.855v-2.084a1.396 1.396 0 0 0-.333-.95zm-27.369-.26h1v3.296h-1zm.912-.783a.48.48 0 0 0-.48-.482.489.489 0 0 0-.484.482.48.48 0 0 0 .483.482.473.473 0 0 0 .481-.482zm14.07 3.661a.482.482 0 1 0-.963 0 .482.482 0 0 0 .964 0zm-15.7-1.602a1.229 1.229 0 0 0-.287-.235 1.183 1.183 0 0 0-.214-.104l-.051-.026.038-.026.118-.078a.97.97 0 0 0 .357-.5c.038-.122.056-.25.051-.377V9.87a1.053 1.053 0 0 0-.312-.768c-.274-.273-.667-.405-1.201-.405h-2.048v4.546h2.099a2.94 2.94 0 0 0 .693-.077c.19-.045.372-.124.534-.235.148-.106.268-.244.353-.405.082-.17.122-.357.117-.546v-.013a1.34 1.34 0 0 0-.064-.416.753.753 0 0 0-.184-.322zm-2.675-.691V9.485h1.082a.916.916 0 0 1 .55.143c.116.09.184.23.18.377v.013a.448.448 0 0 1-.213.427c-.179.101-.382.15-.588.143h-1.017v-.04l.006-.01zm2.06 1.354a.46.46 0 0 1-.213.427c-.184.101-.391.15-.6.143h-1.253v-1.12h1.186c.231-.014.462.035.667.143a.446.446 0 0 1 .214.427v-.02zm11.487-2.005a1.07 1.07 0 0 0-.744.213c-.124.1-.23.218-.314.352v-.495h-.875v3.294h.875V11.99a1.586 1.586 0 0 1 .079-.52.98.98 0 0 1 .213-.365.93.93 0 0 1 .719-.299h.102v-.9l-.055-.017zm-22.083 2.615a.885.885 0 0 0 .428.628l-.09-.184s.17-.482-.338-.444z" /><path fill="var(--fill-color1)" d="M113.888 7.893a4.667 4.667 0 0 0-6.59 0 4.644 4.644 0 0 0 0 6.577 4.667 4.667 0 0 0 6.59 0 4.657 4.657 0 0 0 0-6.577zm-.483 6.11c-.054.051-.105.103-.156.143-1.123.911-1.984.455-1.997.455-.588-.118-.877-.118-1.045-.214-.039-.028-.17-.104-.214-.079a.392.392 0 0 1-.456-.025l-.04-.04a.332.332 0 0 1-.064-.442c.038-.039-.039-.169-.039-.169s-.214-.326-.365-.523a1.58 1.58 0 0 1-.197-.64 2.45 2.45 0 0 1-.248-.352c-.038-.05-.092-.104-.13-.155a.6.6 0 0 1-.08-.092v-.026a.854.854 0 0 1 .261-.326c.054-.039.276-.169.276-.169a.456.456 0 0 1 .338-.196c.223-.013.446.023.654.105l.143.04c.235.077.443.169.614.233.11.052.223.096.34.132.286.077.808-.158.912-.262a.68.68 0 0 0 .261-.35.234.234 0 0 0-.066-.145.924.924 0 0 1-.103-.118l-.027-.025c-.496-.52-.404-.854-.404-.854a.69.69 0 0 0-.261-.546l-.026-.025-.013-.013c.249.071.502.128.757.168.112.023.227.027.34.013.26-.013.455-.025.468-.092a5.115 5.115 0 0 1-.678-.194c-.248-.091-.286-.104-.457-.17a3.853 3.853 0 0 1-.428-.169c.888.235 1.174.326 1.578.326.101.004.203-.005.301-.027.052-.013.236-.051.261-.118a1.555 1.555 0 0 1-.496-.076c-1.03-.34-1.122-.508-1.697-.73a4.783 4.783 0 0 0-.874-.273 2.011 2.011 0 0 0-.757 0c-.783-.184-.966-.17-1.202-.117a3.984 3.984 0 0 1 5.443 1.12l.013.025c.435.647.667 1.41.667 2.189a3.761 3.761 0 0 1-1.107 2.803zm-2.61-4.495c.241.1.427.3.508.549-.496.117-.391-.39-.391-.39l-.118-.159zM101.882.06h.319v15.77h-.319zm5.898 2.26c.233 0 .417-.058.552-.175a.568.568 0 0 0 .203-.45v-.01c0-.207-.068-.362-.205-.468-.137-.105-.32-.157-.55-.157h-.715v1.26h.715zM106.45.5h1.38c.203 0 .387.027.552.083.166.055.305.134.42.237.116.103.204.227.265.37.062.143.093.303.093.48v.01a1.075 1.075 0 0 1-.41.89c-.127.1-.275.176-.445.227-.17.052-.352.078-.545.078h-.695V4h-.615V.5zm5.02 2.995a1.154 1.154 0 0 0 .85-.363c.103-.111.184-.242.243-.392.058-.15.087-.31.087-.48v-.01c0-.17-.03-.33-.088-.482a1.185 1.185 0 0 0-.623-.663 1.146 1.146 0 0 0-.479-.1 1.154 1.154 0 0 0-.85.363 1.225 1.225 0 0 0-.242.392 1.3 1.3 0 0 0-.088.48v.01c0 .17.03.33.088.482a1.185 1.185 0 0 0 .622.663c.147.067.307.1.48.1zm-.01.565a1.87 1.87 0 0 1-.74-.142 1.758 1.758 0 0 1-.95-.96 1.812 1.812 0 0 1-.135-.698v-.01c0-.247.045-.48.135-.698.09-.218.217-.41.38-.575a1.829 1.829 0 0 1 1.32-.537c.27 0 .517.047.74.143a1.758 1.758 0 0 1 .95.96c.09.218.135.45.135.697v.01a1.804 1.804 0 0 1-.515 1.272 1.829 1.829 0 0 1-1.32.538zM113.77.5h.665l.835 2.595.86-2.605h.52l.86 2.605.835-2.595h.645l-1.22 3.525h-.53l-.86-2.515-.86 2.515h-.53L113.77.5zm5.85 0h2.595v.55h-1.98v.91h1.755v.55h-1.755v.94h2.005V4h-2.62V.5zm4.865 1.735c.22 0 .395-.052.525-.157a.52.52 0 0 0 .195-.428v-.01c0-.19-.063-.334-.19-.432-.127-.099-.305-.148-.535-.148h-.895v1.175h.9zM122.97.5h1.56c.22 0 .415.03.585.093.17.061.312.147.425.257.093.097.165.208.215.335.05.127.075.267.075.42v.01c0 .143-.02.272-.063.387a1.013 1.013 0 0 1-.434.53c-.102.062-.215.11-.338.143L125.94 4h-.725l-.86-1.22h-.77V4h-.615V.5zm3.615 0h2.595v.55h-1.98v.91h1.755v.55H127.2v.94h2.005V4h-2.62V.5zm4.655 2.94c.183 0 .35-.03.5-.087a1.089 1.089 0 0 0 .627-.621c.059-.145.088-.302.088-.472v-.01c0-.17-.03-.328-.088-.475a1.103 1.103 0 0 0-.244-.377 1.123 1.123 0 0 0-.383-.248c-.15-.06-.317-.09-.5-.09h-.69v2.38h.69zM129.935.5h1.305c.273 0 .524.044.752.132.229.089.425.211.59.368.166.157.293.34.383.552.09.212.135.441.135.688v.01c0 .247-.045.477-.135.69a1.63 1.63 0 0 1-.382.555 1.81 1.81 0 0 1-.59.37c-.229.09-.48.135-.753.135h-1.305V.5zm7.035 2.955c.21 0 .375-.04.495-.12.12-.08.18-.2.18-.36v-.01c0-.15-.06-.266-.178-.347-.118-.082-.299-.123-.542-.123h-.975v.96h1.02zm-.18-1.48c.2 0 .36-.04.48-.118.12-.078.18-.197.18-.357v-.01c0-.14-.052-.25-.157-.327-.106-.079-.258-.118-.458-.118h-.885v.93h.84zM135.345.5h1.57c.403 0 .708.103.915.31.157.157.235.35.235.58v.01a.816.816 0 0 1-.153.498.778.778 0 0 1-.16.162 1.364 1.364 0 0 1-.187.12c.103.037.197.08.282.127a.909.909 0 0 1 .22.173.7.7 0 0 1 .143.235c.033.09.05.195.05.315v.01c0 .157-.03.295-.093.415a.824.824 0 0 1-.262.3c-.113.08-.25.14-.41.183-.16.041-.337.062-.53.062h-1.62V.5zm4.64 2.12L138.595.5h.725l.98 1.55.99-1.55h.705l-1.39 2.105V4h-.62V2.62zm2.465.695h.665V4h-.665v-.685zm0-1.955h.665v.685h-.665V1.36z" /></g></symbol><symbol viewBox="0 0 32 32" fill="none" id="ic-brand-derivgo"><g clip-path="url(#ic-brand-derivgo_a)"><path d="M.8 6.5c0-3.31 2.69-6 6-6h20c3.31 0 6 2.69 6 6v20c0 3.31-2.69 6-6 6h-20c-3.31 0-6-2.69-6-6v-20Z" fill="url(#ic-brand-derivgo_b)" /><path d="m6.77 12.5 3.06 4-4.91 4h4.96c1.45 0 2.7-1 3.03-2.41l.41-1.78a3.105 3.105 0 0 0-3.03-3.81H6.76h.01Z" fill="url(#ic-brand-derivgo_c)" /><path d="m9.83 16.5-2.18 4H4.92l4.91-4Z" fill="#CC2E3D" /><path d="M28.47 14.48c-.3-.8-.92-1.43-1.72-1.74-.44-.17-.9-.25-1.37-.25-.38 0-.76.05-1.13.16-.35.1-.69.26-1 .46-.31.2-.59.44-.84.72-.25.29-.47.6-.64.95-.18.36-.31.74-.4 1.13l-.03.14h-3.76l-.34 1.61h1.71c-.05.08-.1.15-.15.22-.18.23-.4.43-.65.57-.24.13-.51.2-.78.2-.19 0-.38-.03-.56-.11-.16-.07-.3-.17-.42-.3a1.49 1.49 0 0 1-.28-.49c-.07-.21-.1-.43-.1-.66 0-.38.05-.75.17-1.11.1-.32.25-.62.45-.88.18-.23.4-.43.65-.57.24-.13.51-.2.78-.2a1.289 1.289 0 0 1 .97.41c.12.14.22.31.28.49l1.9-.75c-.3-.8-.92-1.43-1.71-1.73-.44-.17-.9-.25-1.37-.25-.38 0-.76.05-1.13.16-.35.1-.69.26-1 .46-.31.2-.59.44-.84.72-.25.29-.47.6-.64.95-.18.36-.31.74-.4 1.14-.1.43-.14.86-.14 1.3 0 .44.08.88.24 1.29.15.39.38.75.68 1.05.3.3.66.53 1.05.69.43.17.9.25 1.36.25.38 0 .76-.05 1.13-.16.71-.21 1.35-.61 1.83-1.17.25-.29.47-.6.64-.94.14-.27.25-.55.33-.85.01.39.09.77.23 1.14.15.39.38.75.68 1.05.3.3.66.53 1.05.69.43.17.9.25 1.36.25.38 0 .76-.05 1.13-.16.71-.21 1.35-.61 1.83-1.17.25-.29.47-.6.64-.94.18-.36.31-.75.4-1.14.09-.43.14-.86.14-1.3 0-.44-.08-.88-.23-1.29v-.04Zm-1.96 2.53c-.1.32-.25.61-.45.88-.18.23-.4.43-.65.57-.24.13-.51.2-.78.2-.19 0-.38-.03-.56-.11-.16-.07-.3-.17-.42-.3a1.49 1.49 0 0 1-.28-.49c-.07-.21-.1-.43-.1-.66 0-.38.05-.75.17-1.11.1-.32.25-.62.45-.88.18-.23.4-.43.66-.57.24-.13.51-.2.78-.2a1.289 1.289 0 0 1 .97.41c.12.14.22.31.28.49.07.21.1.43.1.66 0 .38-.05.76-.17 1.12v-.01Z" fill="#fff" /></g><defs></defs></symbol><linearGradient id="ic-brand-derivgo_b" x1="16.8" y1="32.5" x2="16.8" y2=".5" gradientUnits="userSpaceOnUse"><stop /><stop offset="1" stop-color="#58595B" /></linearGradient><linearGradient id="ic-brand-derivgo_c" x1="10.281" y1="11.12" x2="8.691" y2="21.17" gradientUnits="userSpaceOnUse"><stop stop-color="#FF6444" /><stop offset="1" stop-color="#FF444F" /></linearGradient><clipPath id="ic-brand-derivgo_a"><path fill="#fff" transform="translate(.8 .5)" d="M0 0h32v32H0z" /></clipPath><symbol fill="none" viewBox="0 0 32 32" id="ic-brand-dmt5-financial"><path d="M0 6a6 6 0 0 1 6-6h20a6 6 0 0 1 6 6v20a6 6 0 0 1-6 6H6a6 6 0 0 1-6-6V6z" fill="#FF6444" /><path fill-rule="evenodd" clip-rule="evenodd" d="M6.322 20.66a1.854 1.854 0 0 0 2.996-2.092l4.231-4.232a1.854 1.854 0 0 0 1.556 0l2.559 2.559a1.854 1.854 0 0 0 2.995 2.092 1.854 1.854 0 0 0 .368-2.092l2.559-2.56a1.854 1.854 0 0 0 2.092-2.995 1.854 1.854 0 0 0-2.996 2.092l-2.559 2.56a1.854 1.854 0 0 0-1.556 0l-2.559-2.56a1.854 1.854 0 1 0-3.362 0l-4.232 4.232a1.854 1.854 0 0 0-2.092 2.996z" fill="#fff" /></symbol><symbol fill="none" viewBox="0 0 32 32" id="ic-brand-dmt5-financial-stp"><path d="M0 6a6 6 0 0 1 6-6h20a6 6 0 0 1 6 6v20a6 6 0 0 1-6 6H6a6 6 0 0 1-6-6V6z" fill="#FF444F" /><path fill-rule="evenodd" clip-rule="evenodd" d="M6.322 20.66a1.854 1.854 0 0 0 2.996-2.092l4.231-4.232a1.854 1.854 0 0 0 1.556 0l2.559 2.559a1.854 1.854 0 0 0 2.995 2.092 1.854 1.854 0 0 0 .368-2.092l2.559-2.56a1.854 1.854 0 0 0 2.092-2.995 1.854 1.854 0 0 0-2.996 2.092l-2.559 2.56a1.854 1.854 0 0 0-1.556 0l-2.559-2.56a1.854 1.854 0 1 0-3.362 0l-4.232 4.232a1.854 1.854 0 0 0-2.092 2.996z" fill="#fff" /></symbol><symbol fill="none" viewBox="0 0 32 32" id="ic-brand-dmt5-synthetics"><path d="M0 6a6 6 0 0 1 6-6h20a6 6 0 0 1 6 6v20a6 6 0 0 1-6 6H6a6 6 0 0 1-6-6V6z" fill="#85ACB0" /><path fill-rule="evenodd" clip-rule="evenodd" d="m20.967 23.203-3.653-6.432h2.424l.652-1.307h-3.142L20.96 9.02l3.712 6.444h-2.825l-.653 1.307h3.478l-3.705 6.432zM7.564 16.771h7.424l-.939 1.666.72 1.33 1.383-2.4 3.692 6.502h-7.438l1.659-2.88-.72-1.329-2.069 3.555-3.712-6.444zm3.78-7.869 1.875 3.296.848-1.145-1.526-2.687h7.29l-3.671 6.372-1.39-2.446-.847 1.146 1.147 2.026H7.564l3.78-6.562zm14.835 6.562-4.465-7.751a1.304 1.304 0 0 0-1.13-.654h-8.931c-.466 0-.897.249-1.13.654l-4.466 7.75a1.312 1.312 0 0 0 0 1.308l4.466 7.752c.233.404.664.654 1.13.654h8.93c.467 0 .897-.25 1.13-.654l4.466-7.752a1.312 1.312 0 0 0 0-1.307z" fill="#fff" /></symbol><symbol viewBox="0 0 140 36" fill="none" id="ic-brand-dxtrade-wordmark"><path fill-rule="evenodd" clip-rule="evenodd" d="M20.739 1.084l-1.772 10.05h-6.152c-5.74 0-11.21 4.65-12.224 10.39l-.43 2.443c-1.009 5.74 2.82 10.39 8.56 10.39h5.131c4.183 0 8.168-3.386 8.904-7.57L27.482 0l-6.743 1.084zM16.374 25.84c-.227 1.292-1.39 2.344-2.682 2.344h-3.117c-2.58 0-4.306-2.094-3.854-4.679l.27-1.523c.457-2.58 2.919-4.678 5.498-4.678h5.39l-1.505 8.536z" fill="#FF444F" /><path d="M68.118 34.359h6.385l4.037-22.902h-6.385L68.118 34.36zM68.33 14.443l.002-.005.479-2.717c-6.552-1.688-11.656.058-13.734.919l-3.832 21.724h6.39l3.109-17.643c.959-.191 4.08-.49 7.105.45l.482-2.728z" fill="#FF444F" /><path fill-rule="evenodd" clip-rule="evenodd" d="M42.914 11.133h-4.966c-4.844 0-9.46 3.923-10.314 8.767l-1.005 5.692c-.854 4.844 2.377 8.768 7.22 8.768h10.574l1.085-6.155H35.57c-1.613 0-2.693-1.306-2.405-2.924l.033-.193h16.02l.915-5.188c.854-4.844-2.377-8.767-7.22-8.767zm.81 8.276l-.037.33h-9.526l.052-.292c.287-1.613 1.759-3.032 3.376-3.032h3.721c1.6 0 2.68 1.396 2.415 2.994z" fill="#FF444F" /><path d="M89.638 26.563c2.9-5.216 6.096-12.06 7.428-15.106h6.395c-2.177 5.788-7.165 15.633-11.998 22.902h-6.39c-2.218-6.919-3.65-16.559-3.924-22.902h6.39c.116 2.07 1.042 9.744 2.1 15.106z" fill="#FF444F" /><path d="M130.585 35.182a88.352 88.352 0 00-3.024-5.528 61.175 61.175 0 00-3.733-5.765 52.24 52.24 0 00-1.701 2.363 117.016 117.016 0 00-2.032 3.213 757.818 757.818 0 00-1.89 3.26c-.598 1.04-1.039 1.859-1.323 2.457h-8.41a117.586 117.586 0 014.819-8.032 283.304 283.304 0 016.19-8.93L108.944 2.437h8.93l6.379 10.206 6.237-10.206h8.411l-10.395 15.876c2.646 3.433 4.867 6.615 6.662 9.544 1.796 2.898 3.213 5.34 4.253 7.324h-8.836z" fill="#fff" /></symbol></defs></svg>