<svg xmlns="http://www.w3.org/2000/svg" xmlns:xlink="http://www.w3.org/1999/xlink"><defs><symbol viewBox="0 0 24 24" id="ic-contract-barrier"><g fill="var(--fill-color3)"><rect width="24" height="24" rx="4" /><path fill="var(--fill-color2)" d="M6 13H0v-2h6V8h12v8H6v-3z" /><path fill="#FFF" d="M10 11h4a1 1 0 010 2h-4a1 1 0 010-2z" /></g></symbol><symbol viewBox="0 0 16 16" id="ic-contract-buy-price"><g fill="var(--fill-color3)" fill-rule="evenodd"><rect width="16" height="16" rx="2.667" /><path fill="var(--fill-color1)" fill-rule="nonzero" d="M7.482 13v-1.067c-.577-.054-1.063-.19-1.457-.406A3.805 3.805 0 015 10.715l1.025-.952c.22.232.463.424.728.575.266.15.558.249.877.295V8.545c-.858-.178-1.473-.456-1.844-.835-.372-.379-.558-.85-.558-1.415 0-.611.191-1.11.575-1.497.383-.387.943-.622 1.679-.708V3H8.78v1.09c.455.055.854.169 1.195.343.342.174.638.408.888.702l-1.036.95a2.389 2.389 0 00-.49-.417 2.12 2.12 0 00-.694-.278v1.926c.805.185 1.399.452 1.782.8.383.348.575.82.575 1.415 0 .573-.18 1.075-.54 1.508-.361.434-.921.716-1.68.847V13H7.482zm-.683-6.752c0 .225.066.399.2.522.132.124.343.228.631.314V5.367c-.288.061-.5.168-.632.319a.82.82 0 00-.2.562zm2.63 3.41a.92.92 0 00-.148-.492c-.099-.159-.311-.288-.638-.389v1.833c.266-.077.463-.199.592-.365a.928.928 0 00.194-.586z" mask="url(#b)" /></g></symbol><symbol viewBox="0 0 24 24" id="ic-contract-commission"><g fill="none" fill-rule="evenodd"><rect width="24" height="24" fill="var(--fill-color3)" fill-rule="nonzero" rx="4" /><text fill="var(--fill-color1)" font-family="IBMPlexSans-Bold, IBM Plex Sans" font-size="16" font-weight="bold"><tspan x="4.208" y="16">%</tspan></text></g></symbol><symbol viewBox="0 0 24 24" id="ic-contract-duration"><g fill="var(--fill-color3)" fill-rule="evenodd"><rect width="24" height="24" fill-rule="nonzero" rx="4" /><path fill="var(--fill-color1)" d="M12 19a7 7 0 110-14 7 7 0 010 14zm0-2a5 5 0 100-10 5 5 0 000 10zm1-6h1a1 1 0 010 2h-2a1 1 0 01-1-1V9a1 1 0 012 0v2z" /></g></symbol><symbol viewBox="0 0 24 24" id="ic-contract-entry-spot"><g fill="none" fill-rule="evenodd"><rect width="24" height="24" fill="var(--fill-color3)" fill-rule="nonzero" rx="4" /><path fill="#FF444F" d="M12 19a7 7 0 100-14 7 7 0 000 14z" /><path fill="var(--general-main-1)" d="M12 16a4 4 0 110-8 4 4 0 010 8z" /></g></symbol><symbol viewBox="0 0 24 24" id="ic-contract-exit-spot"><g fill-rule="evenodd"><rect width="24" height="24" fill="var(--fill-color3)" fill-rule="nonzero" rx="4" /><path fill="var(--fill-color2)" fill-rule="nonzero" d="M12 19a7 7 0 100-14 7 7 0 000 14z" /><path fill="var(--general-main-1)" d="M12 17a5 5 0 110-10 5 5 0 010 10z" /></g></symbol><symbol viewBox="0 0 24 24" id="ic-contract-exit-time"><g fill="none" fill-rule="evenodd"><rect width="24" height="24" fill="var(--fill-color1)" fill-rule="nonzero" rx="4" /><path fill="var(--fill-color3)" d="M7 6h11a1 1 0 011 1v8a1 1 0 01-1 1H7v2a1 1 0 01-2 0V6a1 1 0 112 0zm0 2v2h2V8H7zm0 4v2h2v-2H7zm8-4v2h2V8h-2zm-2 2v2h2v-2h-2zm2 2v2h2v-2h-2zm-4-4v2h2V8h-2zm-2 2v2h2v-2H9zm2 2v2h2v-2h-2z" /></g></symbol><symbol viewBox="0 0 24 24" id="ic-contract-exit-time-circle"><g fill-rule="evenodd"><circle cx="12" cy="12" r="12" fill="var(--fill-color1)" /><path fill="var(--fill-color3)" fill-rule="nonzero" d="M6.364 5.333h12.303c.736 0 1.333.597 1.333 1.334v8c0 .736-.597 1.333-1.333 1.333H6.364v3.333a.667.667 0 01-.667.667h-.03A.667.667 0 015 19.333V4.667C5 4.298 5.298 4 5.667 4h.03c.368 0 .667.298.667.667v.666zm4.09 1.334v2.666h2.728V6.667h-2.727zm2.728 2.666V12h2.727V9.333h-2.727zm2.727-2.666v2.666h2.727V6.667H15.91zm0 5.333v2.667h2.727V12H15.91zm-5.454 0v2.667h2.727V12h-2.727zM7.727 9.333V12h2.728V9.333H7.727z" /></g></symbol><symbol viewBox="0 0 24 24" id="ic-contract-flag"><g fill="none"><path d="M-6-4h32v32H-6z" /><path fill="var(--fill-color1)" d="M2 2h18a2 2 0 012 2v12a2 2 0 01-2 2H2v5a1 1 0 01-2 0V1a1 1 0 112 0v1zm6 2v4h4V4H8zm4 4v4h4V8h-4zm4-4v4h4V4h-4zm0 8v4h4v-4h-4zm-8 0v4h4v-4H8zM4 8v4h4V8H4z" /></g></symbol><symbol viewBox="0 0 24 24" id="ic-contract-id"><g fill="none" fill-rule="evenodd"><rect width="24" height="24" fill="var(--fill-color3)" fill-rule="nonzero" rx="4" /><path fill="var(--fill-color1)" d="M11 7h3a4 4 0 014 4v2a4 4 0 01-4 4h-3a1 1 0 01-1-1V8a1 1 0 011-1zm1 2v6h2a2 2 0 002-2v-2a2 2 0 00-2-2h-2zM7 7a1 1 0 011 1v8a1 1 0 01-2 0V8a1 1 0 011-1z" mask="url(#b)" /></g></symbol><symbol fill="none" viewBox="0 0 24 24" id="ic-contract-payout"><rect width="24" height="24" rx="4" fill="var(--fill-color3)" /><path d="M12.143 11.452c1.505.166 2.257.565 2.257 1.726 0 .897-.716 1.594-1.791 1.76v.796c-.036.166-.143.266-.287.266h-.537c-.18-.033-.287-.133-.287-.265v-.797c-1.182-.166-1.755-.764-1.898-1.594v-.033c0-.133.107-.232.25-.232h.61c.107 0 .215.066.25.199.108.498.43.863 1.362.863.68 0 1.182-.365 1.182-.896s-.323-.73-1.326-.896c-1.504-.166-2.22-.598-2.22-1.693 0-.83.68-1.494 1.755-1.627v-.763c.036-.166.143-.266.286-.266h.538c.179.033.286.133.286.266v.796c.824.067 1.469.63 1.612 1.361v.034c0 .132-.107.232-.25.232h-.574a.269.269 0 0 1-.25-.166c-.18-.498-.538-.697-1.183-.697-.716 0-1.074.298-1.074.763s.215.73 1.29.863Z" fill="var(--fill-color1)" /><path d="M13.452 18.85a7 7 0 1 1 5.397-5.397c.321.167.617.377.88.622a8 8 0 1 0-5.653 5.653 4.008 4.008 0 0 1-.624-.879Z" fill="var(--fill-color1)" /><path fill-rule="evenodd" clip-rule="evenodd" d="M17 19a2 2 0 1 0 0-4 2 2 0 0 0 0 4Zm0 1a3 3 0 1 0 0-6 3 3 0 0 0 0 6Z" fill="var(--fill-color1)" /><path d="M18 17a1 1 0 1 1-2 0 1 1 0 0 1 2 0Z" fill="var(--fill-color1)" /></symbol><symbol viewBox="0 0 24 24" fill="var(--fill-color3)" id="ic-contract-reset-barrier"><rect width="24" height="24" rx="4" /><path d="M5 12h2v-1H5v1Zm3 0h2v-1H8v1Zm3 0h2v-1h-2v1Zm3 0h2v-1h-2v1Zm3 0h2v-1h-2v1Z" fill="var(--fill-color1)" /></symbol><symbol viewBox="0 0 24 24" fill="var(--fill-color3)" id="ic-contract-reset-time"><rect width="24" height="24" rx="4" /><g clip-path="url(#ic-contract-reset-time_a)"><path d="M12 4a8 8 0 1 1 0 16 8 8 0 0 1 0-16Zm0 1.143a6.857 6.857 0 1 0 0 13.714 6.857 6.857 0 0 0 0-13.714ZM9 11.5a.5.5 0 0 1 .5.5 2.5 2.5 0 0 0 4 2.001l-1-.001a.5.5 0 0 1-.09-.992L12.5 13h2a.5.5 0 0 1 .492.41l.008.09v2a.5.5 0 0 1-.992.09L14 15.5v-.628A3.5 3.5 0 0 1 8.5 12a.5.5 0 0 1 .5-.5ZM9.5 8a.5.5 0 0 1 .492.41L10 8.5v.627A3.5 3.5 0 0 1 15.5 12a.5.5 0 0 1-1 0 2.5 2.5 0 0 0-4-2h1a.5.5 0 0 1 .09.992L11.5 11h-2a.5.5 0 0 1-.492-.41L9 10.5v-2a.5.5 0 0 1 .5-.5Z" fill="var(--fill-color1)" /></g><defs></defs></symbol><clipPath id="ic-contract-reset-time_a"><path fill="#fff" d="M4 4h16v16H4z" /></clipPath><symbol viewBox="0 0 25 24" fill="none" id="ic-contract-reset-time-circle"><g clip-path="url(#ic-contract-reset-time-circle_a)"><path d="M12.5 0c6.627 0 12 5.373 12 12s-5.373 12-12 12-12-5.373-12-12 5.373-12 12-12Zm0 1.714C6.82 1.714 2.214 6.32 2.214 12S6.819 22.286 12.5 22.286c5.68 0 10.286-4.605 10.286-10.286 0-5.68-4.605-10.286-10.286-10.286ZM8 11.25a.75.75 0 0 1 .75.75 3.75 3.75 0 0 0 5.999 3.002L13.25 15a.75.75 0 0 1-.135-1.488l.135-.012h3a.75.75 0 0 1 .738.615l.012.135v3a.75.75 0 0 1-1.488.135l-.012-.135.001-.941A5.25 5.25 0 0 1 7.25 12a.75.75 0 0 1 .75-.75ZM8.75 6a.75.75 0 0 1 .738.615l.012.135v.941A5.25 5.25 0 0 1 17.75 12a.75.75 0 0 1-1.5 0 3.75 3.75 0 0 0-6-3h1.5a.75.75 0 0 1 .135 1.488l-.135.012h-3a.75.75 0 0 1-.738-.615L8 9.75v-3A.75.75 0 0 1 8.75 6Z" fill="var(--fill-color1)" /></g><defs></defs></symbol><clipPath id="ic-contract-reset-time-circle_a"><path d="M.5 0h24v24H.5z" /></clipPath><symbol fill="none" viewBox="0 0 24 24" id="ic-contract-safeguard"><path fill="var(--fill-color3)" d="M20 0H4a4 4 0 00-4 4v16a4 4 0 004 4h16a4 4 0 004-4V4a4 4 0 00-4-4z" /><path fill="var(--fill-color1)" d="M12 7.53a9.71 9.71 0 004 1.52 12.62 12.62 0 01-.54 4.57 5 5 0 01-1.25 1.9A6.76 6.76 0 0112 16.88a6.92 6.92 0 01-2.21-1.36 5 5 0 01-1.24-1.89A12.68 12.68 0 018 9.05a9.71 9.71 0 004-1.52zM12 4a1.05 1.05 0 00-.71.27 6.79 6.79 0 01-4.61 1.9A1.71 1.71 0 005 7.83v.5a16.9 16.9 0 00.72 6.33 8.1 8.1 0 002 3 10.51 10.51 0 003.89 2.24h.16l.23.1h.38a10.61 10.61 0 003.88-2.24 8 8 0 002-3c.657-2.073.908-4.252.74-6.42v-.5a1.71 1.71 0 00-1.64-1.66 6.79 6.79 0 01-4.59-1.89A1 1 0 0012 4z" /></symbol><symbol viewBox="0 0 24 24" id="ic-contract-start-time"><g fill="none"><rect width="24" height="24" fill="var(--fill-color3)" rx="4" /><path fill="var(--fill-color2)" d="M12 19c3-4 5-6.24 5-9a5 5 0 00-10 0c0 2.76 2 5 5 9z" /><circle cx="12" cy="10" r="3" fill="var(--general-main-1)" /></g></symbol><symbol viewBox="0 0 24 24" id="ic-contract-start-time-circle"><path fill="var(--fill-color1)" fill-rule="evenodd" d="M12 22c5.523 0 10-4.477 10-10S17.523 2 12 2 2 6.477 2 12s4.477 10 10 10zm0 2C5.373 24 0 18.627 0 12S5.373 0 12 0s12 5.373 12 12-5.373 12-12 12zm0-20a5.5 5.5 0 015.5 5.487c0 2.946-5.095 9.956-5.311 10.253l-.19.26-.188-.26C11.593 19.447 6.5 12.426 6.5 9.487A5.5 5.5 0 0112 4zm0 7.363a2.496 2.496 0 002.494-2.491 2.492 2.492 0 00-2.496-2.488 2.492 2.492 0 00-2.494 2.49 2.492 2.492 0 002.495 2.49z" /></symbol><symbol fill="var(--fill-color3)" viewBox="0 0 24 24" id="ic-contract-strike"><rect width="24" height="24" rx="4" /><path d="M5 13h14v-1H5v1Z" fill="var(--fill-color1)" /></symbol><symbol viewBox="0 0 24 24" id="ic-contract-target"><g fill="none" fill-rule="evenodd"><rect width="24" height="24" fill="var(--fill-color3)" fill-rule="nonzero" rx="4" /><path fill="var(--fill-color1)" d="M6.083 13H6a1 1 0 010-2h.083A6.005 6.005 0 0111 6.083V6a1 1 0 012 0v.083A6.005 6.005 0 0117.917 11H18a1 1 0 010 2h-.083A6.005 6.005 0 0113 17.917V18a1 1 0 01-2 0v-.083A6.005 6.005 0 016.083 13zm2.043-2H9a1 1 0 010 2h-.874A4.007 4.007 0 0011 15.874V15a1 1 0 012 0v.874A4.007 4.007 0 0015.874 13H15a1 1 0 010-2h.874A4.007 4.007 0 0013 8.126V9a1 1 0 01-2 0v-.874A4.007 4.007 0 008.126 11z" /></g></symbol></defs></svg>