<svg xmlns="http://www.w3.org/2000/svg" xmlns:xlink="http://www.w3.org/1999/xlink"><defs><symbol fill="none" viewBox="0 0 64 64" id="ic-dxtrade-deriv-x"><rect width="64" height="64" fill="#FFAD3A" rx="4" /><path fill="#333" d="M0 4a4 4 0 0 1 4-4h56a4 4 0 0 1 4 4v16H0V4Z" /><g fill="#fff" clip-path="url(#ic-dxtrade-deriv-x_a)"><path d="M36.73 4.486h-3.167l2.494 5.342-4.381 5.343h3.17l4.379-5.343-2.494-5.342Zm4.064 0H44l-3.801 4.59-1.15-2.462 1.745-2.128Zm-1.889 10.685-.991-2.126 2.019-2.463 2.142 4.59h-3.17ZM22.632 4.486l4.098 5.342-6.568 5.343H26.8a4.166 4.166 0 0 0 4.054-3.221l.55-2.377a4.147 4.147 0 0 0-2.247-4.675 4.165 4.165 0 0 0-1.807-.412h-4.718Z" /></g><path fill="#fff" d="m34.996 27.999 5.005 6h-10l4.995-6Zm18.126.879a3 3 0 0 1 0 4.243l-.879.879h-8.485l5.121-5.122a3 3 0 0 1 4.243 0ZM41.758 36l-6 6h8.485l6-6h-8.485Zm-8.001 8h8.486L32.122 54.12a3 3 0 0 1-4.243 0L21 47.242l-7.879 7.879a3 3 0 1 1-4.242-4.243l10-10a3 3 0 0 1 4.243 0L30 47.757 33.757 44ZM46 43.999l5.005 6 4.995-6H46Z" /><defs></defs></symbol><clipPath id="ic-dxtrade-deriv-x_a"><path fill="#fff" d="M20 4h24v11.657H20z" /></clipPath><symbol fill="none" viewBox="0 0 64 64" id="ic-dxtrade-derived"><path d="M0 4a4 4 0 0 1 4-4h56a4 4 0 0 1 4 4v56a4 4 0 0 1-4 4H4a4 4 0 0 1-4-4V4z" fill="#85ACB0" /><path d="M0 4a4 4 0 0 1 4-4h56a4 4 0 0 1 4 4v16H0V4z" fill="#1A1A1A" /><g clip-path="url(#ic-dxtrade-derived_a)" fill="#fff"><path d="M36.73 4.485h-3.167l2.494 5.343-4.381 5.343h3.17l4.379-5.343-2.494-5.343zm4.064 0H44l-3.801 4.592-1.15-2.463 1.745-2.129zm-1.889 10.686-.991-2.126 2.019-2.463 2.142 4.59h-3.17zM22.632 4.485l4.098 5.343-6.568 5.343H26.8a4.168 4.168 0 0 0 4.054-3.221l.55-2.377a4.147 4.147 0 0 0-2.247-4.676 4.166 4.166 0 0 0-1.807-.412h-4.718z" /></g><path d="M49.813 40.716 42.05 27.281A2.557 2.557 0 0 0 39.834 26H24.32a2.567 2.567 0 0 0-2.222 1.281L14.34 40.716a2.588 2.588 0 0 0 0 2.563l7.757 13.44A2.579 2.579 0 0 0 24.32 58h15.514a2.568 2.568 0 0 0 2.217-1.281l7.762-13.44a2.59 2.59 0 0 0 0-2.563zm-9.4 2.712h6.019l-5.928 10.255-5.849-10.255h3.291l1.43-2.86h-4.822l5.934-10.278 5.944 10.277h-4.589l-1.43 2.86zm-8.262-4.418-2.047-3.578-1.86 2.503 1.504 2.632H17.722l6.061-10.479 3.227 5.657 1.877-2.504-2.515-4.38H38.01L32.151 39.01zm-3.556 11.877L27 47.972l-3.35 5.737-5.928-10.282h11.883l-1.297 2.339 1.595 2.913 2.248-3.918 5.902 10.378h-11.91l2.452-4.254z" fill="#fff" /><defs></defs></symbol><clipPath id="ic-dxtrade-derived_a"><path fill="#fff" transform="translate(20 4)" d="M0 0h24v11.657H0z" /></clipPath><symbol fill="none" viewBox="0 0 64 64" id="ic-dxtrade-derivx-platform"><rect width="64" height="64" rx="4" fill="#FFAD3A" /><path d="M0 4a4 4 0 0 1 4-4h56a4 4 0 0 1 4 4v16H0V4Z" fill="#333" /><g clip-path="url(#ic-dxtrade-derivx-platform_a)" fill="#fff"><path d="M36.73 4.486h-3.167l2.494 5.342-4.381 5.343h3.17l4.379-5.343-2.494-5.342ZM40.794 4.486H44l-3.801 4.59-1.15-2.462 1.745-2.128ZM38.905 15.171l-.991-2.126 2.019-2.463 2.142 4.59h-3.17ZM22.632 4.486l4.098 5.342-6.568 5.343H26.8a4.166 4.166 0 0 0 4.054-3.221l.55-2.377a4.147 4.147 0 0 0-2.247-4.675 4.165 4.165 0 0 0-1.807-.412h-4.718Z" /></g><path d="m34.996 27.999 5.005 6h-10l4.995-6ZM53.122 28.878a3 3 0 0 1 0 4.243l-.879.879h-8.485l5.121-5.122a3 3 0 0 1 4.243 0ZM41.758 36l-6 6h8.485l6-6h-8.485ZM33.757 44h8.486L32.122 54.12a3 3 0 0 1-4.243 0L21 47.242l-7.879 7.879a3 3 0 1 1-4.242-4.243l10-10a3 3 0 0 1 4.243 0L30 47.757 33.757 44ZM46 43.999l5.005 6 4.995-6H46Z" fill="#fff" /><defs></defs></symbol><clipPath id="ic-dxtrade-derivx-platform_a"><path fill="#fff" transform="translate(20 4)" d="M0 0h24v11.657H0z" /></clipPath><symbol fill="none" viewBox="0 0 133 95" id="ic-dxtrade-device-desktop"><g clip-path="url(#ic-dxtrade-device-desktop_a)"><path fill="#F2F3F4" d="M6 6h119v73H6z" /><path d="M50 33a6 6 0 0 1 6-6h20a6 6 0 0 1 6 6v20a6 6 0 0 1-6 6H56a6 6 0 0 1-6-6V33z" fill="#0E0E0E" /><g clip-path="url(#ic-dxtrade-device-desktop_b)"><path d="M70.866 37.5H67.61l2.563 5.5-4.503 5.5h3.258l4.5-5.5-2.562-5.5zm4.176 0h3.295l-3.907 4.726-1.18-2.535 1.792-2.191zm-1.942 11-1.019-2.189 2.076-2.535 2.201 4.724h-3.257z" fill="#fff" /><path d="m56.376 37.5 4.21 5.5-6.75 5.5h6.823a4.279 4.279 0 0 0 4.167-3.316l.565-2.447a4.274 4.274 0 0 0-4.167-5.237h-4.848z" fill="var(--brand-red-coral)" /><path d="m60.587 43-3 5.5h-3.75l6.75-5.5z" fill="#CC2F3E" /></g><path clip-rule="evenodd" d="m80.829 84.412 3.554 8.886H47.68l3.554-8.886H80.83z" stroke="#333" stroke-width="2" /><path d="M126.009 1.11H6.053a4.443 4.443 0 0 0-4.442 4.443V79.97a4.443 4.443 0 0 0 4.442 4.443H126.01a4.443 4.443 0 0 0 4.443-4.443V5.553a4.443 4.443 0 0 0-4.443-4.443z" stroke="#333" stroke-width="2" /><path d="M36.042 93.298H96.02" stroke="#333" stroke-width="2" stroke-linecap="round" /><path d="M121.566 6.664H10.496a3.332 3.332 0 0 0-3.332 3.332v65.531a3.332 3.332 0 0 0 3.332 3.332h111.07a3.332 3.332 0 0 0 3.332-3.332V9.997a3.332 3.332 0 0 0-3.332-3.333z" stroke="#333" stroke-width="2" /></g><defs></defs></symbol><clipPath id="ic-dxtrade-device-desktop_a"><path fill="#fff" transform="translate(.5)" d="M0 0h132v95H0z" /></clipPath><clipPath id="ic-dxtrade-device-desktop_b"><path fill="#fff" transform="translate(53.67 37)" d="M0 0h24.667v12H0z" /></clipPath><symbol fill="none" viewBox="0 0 132 95" id="ic-dxtrade-device-desktop-light"><path fill="#333" fill-opacity=".5" d="M5 6h119v73H5z" /><path d="M50 33a6 6 0 0 1 6-6h20a6 6 0 0 1 6 6v20a6 6 0 0 1-6 6H56a6 6 0 0 1-6-6V33z" fill="#0E0E0E" /><g clip-path="url(#ic-dxtrade-device-desktop-light_a)"><path d="M70.868 37.5h-3.256l2.563 5.5-4.503 5.5h3.258l4.5-5.5-2.563-5.5zm4.176 0h3.294l-3.906 4.726-1.181-2.535 1.793-2.191zm-1.942 11-1.019-2.189 2.075-2.535L76.36 48.5h-3.258z" fill="#fff" /><path d="m56.379 37.5 4.21 5.5-6.75 5.5h6.823a4.278 4.278 0 0 0 4.167-3.316l.565-2.447a4.275 4.275 0 0 0-4.167-5.237H56.38z" fill="var(--brand-red-coral)" /><path d="m60.59 43-3 5.5h-3.75l6.75-5.5z" fill="#CC2F3E" /></g><path clip-rule="evenodd" d="m80.33 84.413 3.554 8.886H47.18l3.554-8.886h29.595z" stroke="#333" stroke-width="2.221" /><path d="M125.507 1.11H5.552A4.443 4.443 0 0 0 1.11 5.555V79.97a4.443 4.443 0 0 0 4.443 4.443h119.955a4.443 4.443 0 0 0 4.443-4.443V5.554a4.443 4.443 0 0 0-4.443-4.443z" stroke="#333" stroke-width="2.221" /><path d="M35.54 93.299h59.977" stroke="#333" stroke-width="2.221" stroke-linecap="round" /><path d="M121.066 6.665H9.996a3.332 3.332 0 0 0-3.332 3.332v65.53a3.332 3.332 0 0 0 3.332 3.333h111.07a3.332 3.332 0 0 0 3.332-3.332V9.997a3.332 3.332 0 0 0-3.332-3.332z" stroke="#333" stroke-width="2.221" /><defs></defs></symbol><clipPath id="ic-dxtrade-device-desktop-light_a"><path fill="#fff" transform="translate(53.672 37)" d="M0 0h24.667v12H0z" /></clipPath><symbol fill="none" viewBox="0 0 86 58" id="ic-dxtrade-device-laptop"><path fill="#F2F3F4" d="M10 7h66v38H10z" /><path d="M34 20.375A3.375 3.375 0 0 1 37.375 17h11.25A3.375 3.375 0 0 1 52 20.375v11.25A3.375 3.375 0 0 1 48.625 35h-11.25A3.375 3.375 0 0 1 34 31.625v-11.25z" fill="#0E0E0E" /><g clip-path="url(#ic-dxtrade-device-laptop_a)"><path d="M45.737 22.906h-1.832L45.347 26l-2.533 3.094h1.833L47.179 26l-1.442-3.094zm2.349 0h1.853l-2.197 2.659-.664-1.426 1.008-1.233zm-1.092 6.188-.573-1.232 1.167-1.426 1.239 2.658h-1.833z" fill="#fff" /><path d="M37.586 22.906 39.955 26l-3.797 3.094h3.838a2.407 2.407 0 0 0 2.343-1.866l.318-1.376a2.405 2.405 0 0 0-2.343-2.946h-2.728z" fill="var(--brand-red-coral)" /><path d="m39.955 26-1.688 3.094h-2.109L39.955 26z" fill="#CC2F3E" /></g><path d="M73.2 6.316H12.112a2.221 2.221 0 0 0-2.221 2.222v34.431c0 1.227.994 2.222 2.221 2.222H73.2a2.221 2.221 0 0 0 2.222-2.222V8.538A2.221 2.221 0 0 0 73.2 6.316z" stroke="#333" stroke-width="2" /><path clip-rule="evenodd" d="M82.086 49.634a1.107 1.107 0 0 1 1.11 1.11v2.222a3.32 3.32 0 0 1-.975 2.356 3.322 3.322 0 0 1-2.356.976H5.448c-.92 0-1.753-.373-2.356-.976a3.322 3.322 0 0 1-.976-2.356v-2.221a1.107 1.107 0 0 1 1.11-1.111h78.86z" stroke="#333" stroke-width="2" /><path clip-rule="evenodd" d="M76.532 1.874c.92 0 1.754.373 2.356.976.603.603.976 1.436.976 2.356v44.428H5.448V5.206c0-.92.373-1.753.976-2.356a3.322 3.322 0 0 1 2.356-.976h67.752zm-27.767 47.76v1.11a1.107 1.107 0 0 1-1.11 1.111h-8.886a1.107 1.107 0 0 1-1.111-1.11v-1.111h11.107z" stroke="#333" stroke-width="2" /><defs></defs></symbol><clipPath id="ic-dxtrade-device-laptop_a"><path fill="#fff" transform="translate(36.064 22.625)" d="M0 0h13.875v6.75H0z" /></clipPath><symbol fill="none" viewBox="0 0 84 58" id="ic-dxtrade-device-laptop-light"><path d="M73.16 6H11.84C10.824 6 10 6.806 10 7.8v35.4c0 .994.824 1.8 1.84 1.8h61.32c1.016 0 1.84-.806 1.84-1.8V7.8c0-.994-.824-1.8-1.84-1.8z" fill="#333" fill-opacity=".5" /><path d="M33 20.375A3.375 3.375 0 0 1 36.375 17h11.25A3.375 3.375 0 0 1 51 20.375v11.25A3.375 3.375 0 0 1 47.625 35h-11.25A3.375 3.375 0 0 1 33 31.625v-11.25z" fill="#0E0E0E" /><g clip-path="url(#ic-dxtrade-device-laptop-light_a)"><path d="M44.739 22.906h-1.831L44.349 26l-2.533 3.094h1.833L46.18 26l-1.442-3.094zm2.349 0h1.853l-2.197 2.659-.664-1.426 1.008-1.233zm-1.092 6.188-.573-1.232 1.167-1.426 1.239 2.658h-1.833z" fill="#fff" /><path d="M36.588 22.906 38.957 26l-3.797 3.094h3.838a2.408 2.408 0 0 0 2.344-1.866l.317-1.376a2.405 2.405 0 0 0-2.343-2.946h-2.728z" fill="var(--brand-red-coral)" /><path d="m38.957 26-1.688 3.094H35.16L38.957 26z" fill="#CC2F3E" /></g><path d="M72.7 6.317H11.612A2.221 2.221 0 0 0 9.391 8.54v34.43c0 1.227.994 2.222 2.221 2.222H72.7a2.221 2.221 0 0 0 2.222-2.222V8.54A2.221 2.221 0 0 0 72.7 6.317z" stroke="#333" stroke-width="2" /><path clip-rule="evenodd" d="M81.587 49.634a1.107 1.107 0 0 1 1.111 1.111v2.221c0 .92-.373 1.753-.976 2.356a3.322 3.322 0 0 1-2.356.976H4.949c-.92 0-1.753-.373-2.356-.976a3.322 3.322 0 0 1-.976-2.356v-2.221a1.107 1.107 0 0 1 1.11-1.11h78.86z" stroke="#333" stroke-width="2" /><path clip-rule="evenodd" d="M76.034 1.875c.92 0 1.753.372 2.356.975s.976 1.436.976 2.357v44.428H4.949V5.207c0-.92.373-1.754.976-2.357a3.322 3.322 0 0 1 2.356-.975h67.753z" stroke="#333" stroke-width="2" /><path clip-rule="evenodd" d="M48.267 49.634v1.111a1.107 1.107 0 0 1-1.11 1.11H38.27a1.107 1.107 0 0 1-1.11-1.11v-1.11h11.106z" stroke="#333" stroke-width="2" /><defs></defs></symbol><clipPath id="ic-dxtrade-device-laptop-light_a"><path fill="#fff" transform="translate(35.066 22.625)" d="M0 0h13.875v6.75H0z" /></clipPath><symbol fill="none" viewBox="0 0 49 74" id="ic-dxtrade-device-phone"><g clip-path="url(#ic-dxtrade-device-phone_a)"><path fill="#F2F3F4" d="M2 11h46v50H2z" /><path d="M12 29.5a4.5 4.5 0 0 1 4.5-4.5h15a4.5 4.5 0 0 1 4.5 4.5v15a4.5 4.5 0 0 1-4.5 4.5h-15a4.5 4.5 0 0 1-4.5-4.5v-15z" fill="#0E0E0E" /><g clip-path="url(#ic-dxtrade-device-phone_b)"><path d="M27.65 32.875h-2.443L27.13 37l-3.377 4.125h2.444L29.57 37l-1.922-4.125zm3.132 0h2.47l-2.93 3.545-.885-1.902 1.345-1.643zm-1.457 8.25-.764-1.642 1.556-1.901 1.652 3.543h-2.444z" fill="#fff" /><path d="M16.782 32.875 19.94 37l-5.063 4.125h5.117a3.209 3.209 0 0 0 3.125-2.487l.424-1.835a3.206 3.206 0 0 0-3.125-3.928h-3.636z" fill="var(--brand-red-coral)" /><path d="m19.94 37-2.25 4.125h-2.813L19.94 37z" fill="#CC2F3E" /></g><path d="M43.5 1h-38a4 4 0 0 0-4 4v64a4 4 0 0 0 4 4h38a4 4 0 0 0 4-4V5a4 4 0 0 0-4-4z" stroke="#333" stroke-width="2" /><path clip-rule="evenodd" d="M44.5 1a2.99 2.99 0 0 1 2.121.879A2.99 2.99 0 0 1 47.5 4v7h-46V4c0-.828.336-1.578.879-2.121A2.99 2.99 0 0 1 4.5 1h40z" stroke="#333" stroke-width="2" /><path d="M24 8a1.5 1.5 0 1 0 0-3 1.5 1.5 0 0 0 0 3z" stroke="#333" /><path clip-rule="evenodd" d="M47.5 61v9a2.99 2.99 0 0 1-.879 2.121A2.99 2.99 0 0 1 44.5 73h-40a2.99 2.99 0 0 1-2.121-.879A2.99 2.99 0 0 1 1.5 70v-9h46z" stroke="#333" stroke-width="2" /><path d="M24.5 69.5a2.5 2.5 0 1 0 0-5 2.5 2.5 0 0 0 0 5z" stroke="#333" /></g><defs></defs></symbol><clipPath id="ic-dxtrade-device-phone_a"><path fill="#fff" transform="translate(.5)" d="M0 0h48v74H0z" /></clipPath><clipPath id="ic-dxtrade-device-phone_b"><path fill="#fff" transform="translate(14.752 32.5)" d="M0 0h18.5v9H0z" /></clipPath><symbol fill="none" viewBox="0 0 48 74" id="ic-dxtrade-device-phone-light"><path d="M45.726 12H3.274C2.57 12 2 13.033 2 14.308v45.384C2 60.967 2.57 62 3.274 62h42.452C46.43 62 47 60.967 47 59.692V14.308C47 13.033 46.43 12 45.726 12z" fill="#333" fill-opacity=".5" /><path d="M16 32a3 3 0 0 1 3-3h10a3 3 0 0 1 3 3v10a3 3 0 0 1-3 3H19a3 3 0 0 1-3-3V32z" fill="#0E0E0E" /><g clip-path="url(#ic-dxtrade-device-phone-light_a)"><path d="M26.434 34.25h-1.628L26.087 37l-2.251 2.75h1.629l2.25-2.75-1.281-2.75zm2.088 0h1.647l-1.953 2.363-.59-1.268.896-1.095zm-.971 5.5-.51-1.094 1.038-1.268 1.101 2.362h-1.629z" fill="#fff" /><path d="M19.191 34.25 21.297 37l-3.375 2.75h3.411a2.139 2.139 0 0 0 2.084-1.658l.282-1.224a2.138 2.138 0 0 0-2.084-2.618h-2.424z" fill="var(--brand-red-coral)" /><path d="m21.297 37-1.5 2.75h-1.875L21.297 37z" fill="#CC2F3E" /></g><path d="M43 1H5a4 4 0 0 0-4 4v64a4 4 0 0 0 4 4h38a4 4 0 0 0 4-4V5a4 4 0 0 0-4-4z" stroke="#333" stroke-width="2" /><path clip-rule="evenodd" d="M44 1a2.99 2.99 0 0 1 2.121.879A2.99 2.99 0 0 1 47 4v7H1V4c0-.828.336-1.578.879-2.121A2.99 2.99 0 0 1 4 1h40z" stroke="#333" stroke-width="2" /><path d="M23.5 8a1.5 1.5 0 1 0 0-3 1.5 1.5 0 0 0 0 3z" stroke="#333" /><path clip-rule="evenodd" d="M47 61v9a2.99 2.99 0 0 1-.879 2.121A2.99 2.99 0 0 1 44 73H4a2.99 2.99 0 0 1-2.121-.879A2.99 2.99 0 0 1 1 70v-9h46z" stroke="#333" stroke-width="2" /><path d="M24 69.5a2.5 2.5 0 1 0 0-5 2.5 2.5 0 0 0 0 5z" stroke="#333" /><defs></defs></symbol><clipPath id="ic-dxtrade-device-phone-light_a"><path fill="#fff" transform="translate(17.836 34)" d="M0 0h12.333v6H0z" /></clipPath><symbol fill="none" viewBox="0 0 134 106" id="ic-dxtrade-device-tablet"><g clip-path="url(#ic-dxtrade-device-tablet_a)"><path fill="#F2F3F4" d="M16 9h102v89H16z" /><path d="M50 43a6 6 0 0 1 6-6h20a6 6 0 0 1 6 6v20a6 6 0 0 1-6 6H56a6 6 0 0 1-6-6V43z" fill="#0E0E0E" /><g clip-path="url(#ic-dxtrade-device-tablet_b)"><path d="M70.866 47.5H67.61l2.563 5.5-4.503 5.5h3.258l4.5-5.5-2.562-5.5zm4.176 0h3.295l-3.907 4.726-1.18-2.535 1.792-2.191zm-1.942 11-1.019-2.189 2.076-2.535 2.201 4.724h-3.257z" fill="#fff" /><path d="m56.376 47.5 4.21 5.5-6.75 5.5h6.823a4.279 4.279 0 0 0 4.167-3.316l.565-2.447a4.274 4.274 0 0 0-4.167-5.237h-4.848z" fill="var(--brand-red-coral)" /><path d="m60.587 53-3 5.5h-3.75l6.75-5.5z" fill="#CC2F3E" /></g><path d="M124.5 1H9.5a8 8 0 0 0-8 8v88a8 8 0 0 0 8 8h115a8 8 0 0 0 8-8V9a8 8 0 0 0-8-8z" stroke="#333" stroke-width="2" /><path d="M9 55a1.5 1.5 0 1 0 0-3 1.5 1.5 0 0 0 0 3zm115.5 0a2 2 0 1 0 0-4 2 2 0 0 0 0 4z" stroke="#333" /><path d="M113.5 9h-94a4 4 0 0 0-4 4v81a4 4 0 0 0 4 4h94a4 4 0 0 0 4-4V13a4 4 0 0 0-4-4z" stroke="#333" stroke-width="2" /></g><defs></defs></symbol><clipPath id="ic-dxtrade-device-tablet_a"><path fill="#fff" transform="translate(.5)" d="M0 0h133v106H0z" /></clipPath><clipPath id="ic-dxtrade-device-tablet_b"><path fill="#fff" transform="translate(53.67 47)" d="M0 0h24.667v12H0z" /></clipPath><symbol fill="none" viewBox="0 0 133 106" id="ic-dxtrade-device-tablet-light"><path d="M115.113 8H18.887C17.292 8 16 9.84 16 12.108v80.784C16 95.161 17.293 97 18.887 97h96.226c1.595 0 2.887-1.84 2.887-4.108V12.108C118 9.839 116.708 8 115.113 8z" fill="#333" fill-opacity=".5" /><path d="M51 45a6 6 0 0 1 6-6h20a6 6 0 0 1 6 6v20a6 6 0 0 1-6 6H57a6 6 0 0 1-6-6V45z" fill="#0E0E0E" /><g clip-path="url(#ic-dxtrade-device-tablet-light_a)"><path d="M71.868 49.5h-3.256l2.563 5.5-4.503 5.5h3.258l4.5-5.5-2.563-5.5zm4.176 0h3.294l-3.906 4.726-1.181-2.535 1.793-2.191zm-1.942 11-1.019-2.189 2.075-2.535L77.36 60.5h-3.258z" fill="#fff" /><path d="m57.379 49.5 4.21 5.5-6.75 5.5h6.823a4.278 4.278 0 0 0 4.167-3.316l.565-2.447a4.275 4.275 0 0 0-4.167-5.237H57.38z" fill="var(--brand-red-coral)" /><path d="m61.59 55-3 5.5h-3.75l6.75-5.5z" fill="#CC2F3E" /></g><path d="M124 1H9a8 8 0 0 0-8 8v88a8 8 0 0 0 8 8h115a8 8 0 0 0 8-8V9a8 8 0 0 0-8-8z" stroke="#333" stroke-width="2" /><path d="M8.5 55a1.5 1.5 0 1 0 0-3 1.5 1.5 0 0 0 0 3zM124 55a2 2 0 1 0 0-4 2 2 0 0 0 0 4z" stroke="#333" /><path d="M113 9H19a4 4 0 0 0-4 4v81a4 4 0 0 0 4 4h94a4 4 0 0 0 4-4V13a4 4 0 0 0-4-4z" stroke="#333" stroke-width="2" /><defs></defs></symbol><clipPath id="ic-dxtrade-device-tablet-light_a"><path fill="#fff" transform="translate(54.672 49)" d="M0 0h24.667v12H0z" /></clipPath><symbol fill="none" viewBox="0 0 64 64" id="ic-dxtrade-financial"><path d="M0 4a4 4 0 0 1 4-4h56a4 4 0 0 1 4 4v56a4 4 0 0 1-4 4H4a4 4 0 0 1-4-4V4z" fill="#FF6444" /><path d="M0 4a4 4 0 0 1 4-4h56a4 4 0 0 1 4 4v16H0V4z" fill="#1A1A1A" /><g clip-path="url(#ic-dxtrade-financial_a)" fill="#fff"><path d="M36.73 4.485h-3.167l2.494 5.343-4.381 5.343h3.17l4.379-5.343-2.494-5.343zm4.064 0H44l-3.801 4.592-1.15-2.463 1.745-2.129zm-1.889 10.686-.991-2.126 2.019-2.463 2.142 4.59h-3.17zM22.632 4.485l4.098 5.343-6.568 5.343H26.8a4.168 4.168 0 0 0 4.054-3.221l.55-2.377a4.147 4.147 0 0 0-2.247-4.676 4.166 4.166 0 0 0-1.807-.412h-4.718z" /></g><path fill-rule="evenodd" clip-rule="evenodd" d="M11.15 51.85a3.92 3.92 0 0 0 6.332-4.422l8.945-8.946a3.92 3.92 0 0 0 3.288 0l5.41 5.41a3.918 3.918 0 0 0 .776 4.421 3.929 3.929 0 0 0 5.555 0 3.92 3.92 0 0 0 .776-4.422l5.41-5.409a3.918 3.918 0 0 0 4.422-.776 3.929 3.929 0 0 0-5.556-5.555 3.918 3.918 0 0 0-.776 4.421l-5.41 5.41a3.92 3.92 0 0 0-3.287 0l-5.41-5.41a3.92 3.92 0 0 0-.776-4.421 3.929 3.929 0 0 0-5.555 0 3.918 3.918 0 0 0-.776 4.421l-8.946 8.946a3.92 3.92 0 0 0-4.421 6.331z" fill="#fff" /><defs></defs></symbol><clipPath id="ic-dxtrade-financial_a"><path fill="#fff" transform="translate(20 4)" d="M0 0h24v11.657H0z" /></clipPath><symbol fill="none" viewBox="0 0 64 64" id="ic-dxtrade-financial-platform"><path d="M0 4a4 4 0 0 1 4-4h56a4 4 0 0 1 4 4v56a4 4 0 0 1-4 4H4a4 4 0 0 1-4-4V4z" fill="#FF6444" /><path d="M0 4a4 4 0 0 1 4-4h56a4 4 0 0 1 4 4v16H0V4z" fill="#1A1A1A" /><g clip-path="url(#ic-dxtrade-financial-platform_a)" fill="#fff"><path d="M36.73 4.485h-3.167l2.494 5.343-4.381 5.343h3.17l4.379-5.343-2.494-5.343zm4.064 0H44l-3.801 4.592-1.15-2.463 1.745-2.129zm-1.889 10.686-.991-2.126 2.019-2.463 2.142 4.59h-3.17zM22.632 4.485l4.098 5.343-6.568 5.343H26.8a4.168 4.168 0 0 0 4.054-3.221l.55-2.377a4.147 4.147 0 0 0-2.247-4.676 4.166 4.166 0 0 0-1.807-.412h-4.718z" /></g><path fill-rule="evenodd" clip-rule="evenodd" d="M11.15 51.85a3.92 3.92 0 0 0 6.332-4.422l8.945-8.946a3.92 3.92 0 0 0 3.288 0l5.41 5.41a3.918 3.918 0 0 0 .776 4.421 3.929 3.929 0 0 0 5.555 0 3.92 3.92 0 0 0 .776-4.422l5.41-5.409a3.918 3.918 0 0 0 4.422-.776 3.929 3.929 0 0 0-5.556-5.555 3.918 3.918 0 0 0-.776 4.421l-5.41 5.41a3.92 3.92 0 0 0-3.287 0l-5.41-5.41a3.92 3.92 0 0 0-.776-4.421 3.929 3.929 0 0 0-5.555 0 3.918 3.918 0 0 0-.776 4.421l-8.946 8.946a3.92 3.92 0 0 0-4.421 6.331z" fill="#fff" /><defs></defs></symbol><clipPath id="ic-dxtrade-financial-platform_a"><path fill="#fff" transform="translate(20 4)" d="M0 0h24v11.657H0z" /></clipPath><symbol fill="none" viewBox="0 0 122 108" id="ic-dxtrade-one-password"><path d="M95.785 100H4.215C1.915 100 0 98.084 0 95.785V4.215C0 1.915 1.916 0 4.215 0h91.57C98.085 0 100 1.916 100 4.215v91.187c0 2.682-1.916 4.598-4.215 4.598z" fill="#BCE4E5" /><path opacity=".5" d="M85.44 82.375H14.56c-2.3 0-3.832-1.915-3.832-3.831V65.517c0-2.299 1.916-3.831 3.831-3.831h70.499c2.298 0 3.831 1.916 3.831 3.831v13.027c.383 1.916-1.533 3.831-3.448 3.831z" fill="#fff" /><path d="m24.904 72.03 2.3 1.15-1.15 1.533-2.3-1.533v2.682H21.84V73.18l-2.299 1.533-1.15-1.533 2.3-1.15-2.3-1.149 1.15-1.915 2.3 1.532v-2.682h1.915v2.682l2.299-1.532 1.15 1.532-2.3 1.533zm13.41 0 2.3 1.15-1.15 1.533-2.3-1.533v2.682h-1.532V73.18l-2.298 1.533-1.15-1.533 2.299-1.15-2.299-1.149 1.15-1.915 2.298 1.532v-2.682h1.916v2.682l2.299-1.532 1.15 1.532-2.683 1.533zm13.793 0 2.3 1.15-1.15 1.533-2.299-1.533v2.682h-1.916V73.18l-2.299 1.533-1.149-1.533 2.299-1.15-2.299-1.149 1.15-1.532 2.298 1.532V68.2h1.916v2.682l2.299-1.532 1.15 1.532-2.3 1.15zm13.41 0 2.3 1.15-1.15 1.533-2.3-1.533v2.682h-1.915V73.18l-2.299 1.533-1.15-1.533 2.3-1.15-2.3-1.149 1.15-1.532 2.3 1.532V68.2h1.915v2.682l2.299-1.532 1.15 1.532-2.3 1.15zm13.793 0 2.3 1.15-1.15 1.533-2.299-1.533v2.682h-1.916V73.18l-2.299 1.533-1.149-1.533 2.299-1.15-2.299-1.532 1.15-1.532 2.298 1.532v-2.682h1.916v2.682l2.299-1.532 1.15 1.532-2.3 1.533z" fill="#fff" /><path opacity=".5" d="M50.191 53.257c12.273 0 22.223-9.95 22.223-22.222 0-12.273-9.95-22.223-22.223-22.223S27.97 18.762 27.97 31.035s9.95 22.222 22.222 22.222z" fill="#fff" /><path d="M58.62 29.502H40.996c-1.15 0-2.299 1.15-2.299 2.299v10.728c0 1.15 1.15 2.299 2.299 2.299H58.62c1.15 0 2.3-1.15 2.3-2.299V32.184c.382-1.532-.767-2.682-2.3-2.682zM51.724 41.38h-3.065l.766-4.215c-.766-.383-1.15-1.15-1.15-1.916 0-1.15.767-2.299 2.3-2.299 1.149 0 2.298.767 2.298 2.3 0 .766-.383 1.532-1.15 1.915v4.215zm-6.897-13.41-.383-1.533c-.766-3.065 1.15-5.747 4.215-6.514 3.065-.766 5.747 1.15 6.513 4.215l.383 1.533 3.065-.767-.383-1.532c-.766-4.598-5.364-7.663-9.961-6.514-4.598.767-7.663 5.364-6.514 9.962l.383 1.533 2.682-.384z" fill="#72AEB2" /><path opacity=".2" d="M62.452 89.655H37.548c-.766 0-1.15-.383-1.15-1.15 0-.765.384-1.149 1.15-1.149h24.904c.766 0 1.15.384 1.15 1.15 0 .766-.384 1.15-1.15 1.15z" fill="#000" /><path d="M100 108c12.15 0 22-9.85 22-22s-9.85-22-22-22-22 9.85-22 22 9.85 22 22 22z" fill="#72AEB2" /><path d="M107.383 94.752h-4.224l-3.624-6.168h-.072l-3.528 6.168H92l5.376-8.664L92.263 78h4.248l3.264 5.664h.072L103.16 78h3.936l-5.16 8.16 5.448 8.592z" fill="#fff" /></symbol><symbol fill="none" viewBox="0 0 64 64" id="ic-dxtrade-synthetic-platform"><path d="M0 4a4 4 0 0 1 4-4h56a4 4 0 0 1 4 4v56a4 4 0 0 1-4 4H4a4 4 0 0 1-4-4V4z" fill="#85ACB0" /><path d="M0 4a4 4 0 0 1 4-4h56a4 4 0 0 1 4 4v16H0V4z" fill="#1A1A1A" /><g clip-path="url(#ic-dxtrade-synthetic-platform_a)" fill="#fff"><path d="M36.73 4.485h-3.167l2.494 5.343-4.381 5.343h3.17l4.379-5.343-2.494-5.343zm4.064 0H44l-3.801 4.592-1.15-2.463 1.745-2.129zm-1.889 10.686-.991-2.126 2.019-2.463 2.142 4.59h-3.17zM22.632 4.485l4.098 5.343-6.568 5.343H26.8a4.168 4.168 0 0 0 4.054-3.221l.55-2.377a4.147 4.147 0 0 0-2.247-4.676 4.166 4.166 0 0 0-1.807-.412h-4.718z" /></g><path d="M49.813 40.716 42.05 27.281A2.557 2.557 0 0 0 39.834 26H24.32a2.567 2.567 0 0 0-2.222 1.281L14.34 40.716a2.588 2.588 0 0 0 0 2.563l7.757 13.44A2.579 2.579 0 0 0 24.32 58h15.514a2.568 2.568 0 0 0 2.217-1.281l7.762-13.44a2.59 2.59 0 0 0 0-2.563zm-9.4 2.712h6.019l-5.928 10.255-5.849-10.255h3.291l1.43-2.86h-4.822l5.934-10.278 5.944 10.277h-4.589l-1.43 2.86zm-8.262-4.418-2.047-3.578-1.86 2.503 1.504 2.632H17.722l6.061-10.479 3.227 5.657 1.877-2.504-2.515-4.38H38.01L32.151 39.01zm-3.556 11.877L27 47.972l-3.35 5.737-5.928-10.282h11.883l-1.297 2.339 1.595 2.913 2.248-3.918 5.902 10.378h-11.91l2.452-4.254z" fill="#fff" /><defs></defs></symbol><clipPath id="ic-dxtrade-synthetic-platform_a"><path fill="#fff" transform="translate(20 4)" d="M0 0h24v11.657H0z" /></clipPath></defs></svg>