<svg xmlns="http://www.w3.org/2000/svg" xmlns:xlink="http://www.w3.org/1999/xlink"><defs><symbol fill="none" viewBox="0 0 72 40" id="ic-option-accumulators"><path d="M0 8a8 8 0 018-8h56a8 8 0 018 8v24a8 8 0 01-8 8H8a8 8 0 01-8-8V8z" fill="#F2F3F4" /><g clip-path="url(#ic-option-accumulators_clip0)"><path d="M32 29v3H8v-3h24zM17 17v6h-3v-6h3zm15-9v3H8V8h24z" fill="#85ACB0" /><path d="M25.793 12.638L31.1 17.94a3 3 0 010 4.244l-5.307 5.302-.012-.01a2.985 2.985 0 010-4.221l1.755-1.755H18.5v-3h8.912l-1.631-1.63a2.985 2.985 0 010-4.222l.012-.01zM12.5 18.5v3H8v-3h4.5z" fill="#FF444F" /></g><g clip-path="url(#ic-option-accumulators_clip1)"><path d="M64 29v3H40v-3h24zm0-12v3H40v-3h24z" fill="#85ACB0" /><path d="M52.621 21.5l-4.5 4.5H40v-3h6.879l1.5-1.5h4.242zM61 8a3 3 0 013 3v4.5h-3v-2.379L57.127 17h-4.242l6-6h-2.4A2.985 2.985 0 0153.5 8.015V8H61z" fill="#FF444F" /></g><defs></defs></symbol><clipPath id="ic-option-accumulators_clip0"><path fill="#fff" transform="translate(8 8)" d="M0 0h24v24H0z" /></clipPath><clipPath id="ic-option-accumulators_clip1"><path fill="#fff" transform="translate(40 8)" d="M0 0h24v24H0z" /></clipPath><symbol fill="none" viewBox="0 0 72 40" id="ic-option-call-put-reset"><path d="M0 8a8 8 0 018-8h56a8 8 0 018 8v24a8 8 0 01-8 8H8a8 8 0 01-8-8V8z" fill="#F2F3F4" /><g clip-path="url(#ic-option-call-put-reset_clip0)"><path d="M14 29v3H8v-3h6zm18 0v3h-9v-3h9zM20 8v24h-3V8h3zm-6 0v3H8V8h6z" fill="#85ACB0" /><path d="M17 20.879v4.242l-.879.879H8v-3h6.879L17 20.879zM29 8a3 3 0 013 3v7.5h-.015A2.985 2.985 0 0129 15.521v-2.4l-7.5 7.5v-4.242L26.885 11h-2.4A2.985 2.985 0 0121.5 8.015V8H29z" fill="#FF444F" /></g><g clip-path="url(#ic-option-call-put-reset_clip1)"><path d="M52 8v24h-3V8h3zm-6 21v3h-6v-3h6zm0-21v3h-6V8h6zm18 0v3h-9V8h9z" fill="#85ACB0" /><path d="M53.5 19.385l7.5 7.5v-2.4a2.985 2.985 0 012.985-2.985H64V29a3 3 0 01-3 3h-7.5v-.015A2.985 2.985 0 0156.479 29h2.4L53.5 23.627v-4.242zM48.121 14l.879.879v4.242L46.879 17H40v-3h8.121z" fill="#FF444F" /></g><defs></defs></symbol><clipPath id="ic-option-call-put-reset_clip0"><path fill="#fff" transform="translate(8 8)" d="M0 0h24v24H0z" /></clipPath><clipPath id="ic-option-call-put-reset_clip1"><path fill="#fff" transform="translate(40 8)" d="M0 0h24v24H0z" /></clipPath><symbol fill="none" viewBox="0 0 72 40" id="ic-option-call-put-spread"><path d="M0 8a8 8 0 018-8h56a8 8 0 018 8v24a8 8 0 01-8 8H8a8 8 0 01-8-8V8z" fill="#F2F3F4" /><g clip-path="url(#ic-option-call-put-spread_clip0)"><path d="M32 29v3H8v-3h24zm-.416-10.5a2.916 2.916 0 010 3 2.95 2.95 0 01-.463.621l-5.302 5.304a2.983 2.983 0 01-.01-4.233l1.691-1.692h-6.879l3-3h7.963zM15.5 8v3H8V8h7.5z" fill="#85ACB0" /><path d="M26 8h-7.5v.015A2.985 2.985 0 0021.485 11h2.4l-7.5 7.5H8v3h9.621l3-3L26 13.121V15.5h3V11a3 3 0 00-3-3z" fill="#FF444F" /></g><g clip-path="url(#ic-option-call-put-spread_clip1)"><path d="M47.5 29v3H40v-3h7.5zm10.319-16.425l5.302 5.304c.181.186.337.394.463.621a2.916 2.916 0 010 3h-7.963l-3-3H59.5l-1.692-1.692a2.983 2.983 0 010-4.223l.01-.01zM64 8v3H40V8h24z" fill="#85ACB0" /><path d="M58 24.5v2.379L52.621 21.5l-3-3H40v3h8.379l7.5 7.5h-2.394a2.985 2.985 0 00-2.985 2.985V32H58a3 3 0 003-3v-4.5h-3z" fill="#FF444F" /></g><defs></defs></symbol><clipPath id="ic-option-call-put-spread_clip0"><path fill="#fff" transform="translate(8 8)" d="M0 0h24v24H0z" /></clipPath><clipPath id="ic-option-call-put-spread_clip1"><path fill="#fff" transform="translate(40 8)" d="M0 0h24v24H0z" /></clipPath><symbol fill="none" viewBox="0 0 40 40" id="ic-option-close-to-low"><g clip-path="url(#ic-option-close-to-low_clip0)"><path d="M0 8a8 8 0 018-8h24a8 8 0 018 8v24a8 8 0 01-8 8H8a8 8 0 01-8-8V8z" fill="#F2F3F4" /><g clip-path="url(#ic-option-close-to-low_clip1)"><path d="M32 29v3H8v-3h24zM30.5 8v19.5h-3V8h3z" fill="#85ACB0" /><path d="M14.633 24.5L13.136 26 8 27.5v-3h6.633zm6.867-12a3 3 0 013 3l-.015 7.5a3 3 0 01-2.985-3v-2.379l-6 6.01V19.38l3.879-3.879H17a3.009 3.009 0 01-3-3h7.5z" fill="#FF444F" /></g></g><defs></defs></symbol><clipPath id="ic-option-close-to-low_clip0"><path d="M0 8a8 8 0 018-8h24a8 8 0 018 8v24a8 8 0 01-8 8H8a8 8 0 01-8-8V8z" fill="#fff" /></clipPath><clipPath id="ic-option-close-to-low_clip1"><path fill="#fff" transform="translate(8 8)" d="M0 0h24v24H0z" /></clipPath><symbol fill="none" viewBox="0 0 72 40" id="ic-option-end-in-out"><path d="M0 8a8 8 0 018-8h56a8 8 0 018 8v24a8 8 0 01-8 8H8a8 8 0 01-8-8V8z" fill="#F2F3F4" /><g clip-path="url(#ic-option-end-in-out_clip0)"><path d="M32 29v3H8v-3h24zm0-21v3H8V8h24z" fill="#85ACB0" /><path d="M31.121 17.879l-4.94-4.94-.009.011a2.982 2.982 0 000 4.221L27.5 18.5H17v3h10.5l-1.328 1.329a2.982 2.982 0 000 4.221l.01.01 4.939-4.939a3 3 0 000-4.242z" fill="#FF444F" /></g><g clip-path="url(#ic-option-end-in-out_clip1)"><path d="M64 29v3H40v-3h24zm-12-9v3H40v-3h12zm12 0v3h-4.629l3-3H64z" fill="#85ACB0" /><path d="M61 13.379l-4.94-4.94-.01.01a2.985 2.985 0 000 4.222L57.379 14H49v3h8.379l-1.329 1.329a2.985 2.985 0 000 4.221l.01.01L61 17.622a3 3 0 000-4.242z" fill="#FF444F" /></g><defs></defs></symbol><clipPath id="ic-option-end-in-out_clip0"><path fill="#fff" transform="translate(8 8)" d="M0 0h24v24H0z" /></clipPath><clipPath id="ic-option-end-in-out_clip1"><path fill="#fff" transform="translate(40 8)" d="M0 0h24v24H0z" /></clipPath><symbol fill="none" viewBox="0 0 72 40" id="ic-option-even-odd"><path d="M0 8a8 8 0 018-8h56a8 8 0 018 8v24a8 8 0 01-8 8H8a8 8 0 01-8-8V8z" fill="#F2F3F4" /><path d="M17 23v9H8v-9h9zM32 8v9h-9V8h9z" fill="#85ACB0" /><path d="M32 23v9h-9v-9h9zM17 8v9H8V8h9z" fill="#FF444F" /><path d="M45.25 21.313l5.25 7.875H40l5.25-7.875zm13.5 0L64 29.188H53.5l5.25-7.875z" fill="#85ACB0" /><path d="M46.75 18.688L52 10.813l5.25 7.874h-10.5z" fill="#FF444F" /></symbol><symbol fill="none" viewBox="0 0 72 40" id="ic-option-high-low-tick"><path d="M0 8a8 8 0 018-8h56a8 8 0 018 8v24a8 8 0 01-8 8H8a8 8 0 01-8-8V8z" fill="#F2F3F4" /><g clip-path="url(#ic-option-high-low-tick_clip0)"><path d="M32 29v3H8v-3h24zm0-21v3H20l3-3h9zM17 8l3 3H8V8h9z" fill="#85ACB0" /><path d="M31.985 15.5A2.985 2.985 0 0029 18.485v2.4L22.121 14a3 3 0 00-4.242 0L11 20.88l-3-3v4.241l.879.88a3 3 0 004.242 0L20 16.12l6.879 6.88h-2.4a2.985 2.985 0 00-2.979 2.984V26H29a3 3 0 003-3v-7.5h-.015z" fill="#FF444F" /></g><g clip-path="url(#ic-option-high-low-tick_clip1)"><path d="M64 29v3h-9l-3-3h12zm-12 0l-3 3h-9v-3h12zM64 8v3H40V8h24z" fill="#85ACB0" /><path d="M61 14h-7.5v.015A2.985 2.985 0 0056.485 17h2.4L52 23.879 45.121 17a3 3 0 00-4.242 0l-.879.879v4.242l3-3L49.879 26a3 3 0 004.242 0L61 19.121v2.4a2.985 2.985 0 002.985 2.979H64V17a3 3 0 00-3-3z" fill="#FF444F" /></g><defs></defs></symbol><clipPath id="ic-option-high-low-tick_clip0"><path fill="#fff" transform="translate(8 8)" d="M0 0h24v24H0z" /></clipPath><clipPath id="ic-option-high-low-tick_clip1"><path fill="#fff" transform="translate(40 8)" d="M0 0h24v24H0z" /></clipPath><symbol fill="none" viewBox="0 0 40 40" id="ic-option-high-to-close"><g clip-path="url(#ic-option-high-to-close_clip0)"><path d="M0 8a8 8 0 018-8h24a8 8 0 018 8v24a8 8 0 01-8 8H8a8 8 0 01-8-8V8z" fill="#F2F3F4" /><path d="M30.5 12.5V32h-3V12.5h3zM32 8v3H8V8h24z" fill="#85ACB0" /><path d="M15.5 16.369l6 6.01V20a3 3 0 012.985-3l.015 7.5a3 3 0 01-3 3H14a3.009 3.009 0 013-3h2.379L15.5 20.621v-4.252zM8 12.5l5.136 1.5 1.497 1.5H8v-3z" fill="#FF444F" /></g><defs></defs></symbol><clipPath id="ic-option-high-to-close_clip0"><path d="M0 8a8 8 0 018-8h24a8 8 0 018 8v24a8 8 0 01-8 8H8a8 8 0 01-8-8V8z" fill="#fff" /></clipPath><symbol fill="none" viewBox="0 0 40 40" id="ic-option-high-to-low"><g clip-path="url(#ic-option-high-to-low_clip0)"><path d="M0 8a8 8 0 018-8h24a8 8 0 018 8v24a8 8 0 01-8 8H8a8 8 0 01-8-8V8z" fill="#F2F3F4" /><g clip-path="url(#ic-option-high-to-low_clip1)"><path d="M32 29v3H8v-3h24zm-1.5-16.5v15h-3v-15h3zM32 8v3H8V8h24z" fill="#85ACB0" /><path d="M14.633 24.5L13.136 26 8 27.5v-3h6.633zm6.867-12a3 3 0 013 3l-.015 7.5a3 3 0 01-2.985-3v-2.379l-6 6.01V19.38l3.879-3.879H17a3.009 3.009 0 01-3-3h7.5z" fill="#FF444F" /></g></g><defs></defs></symbol><clipPath id="ic-option-high-to-low_clip0"><path d="M0 8a8 8 0 018-8h24a8 8 0 018 8v24a8 8 0 01-8 8H8a8 8 0 01-8-8V8z" fill="#fff" /></clipPath><clipPath id="ic-option-high-to-low_clip1"><path fill="#fff" transform="translate(8 8)" d="M0 0h24v24H0z" /></clipPath><symbol fill="none" viewBox="0 0 72 40" id="ic-option-higher-lower"><path d="M0 8a8 8 0 018-8h56a8 8 0 018 8v24a8 8 0 01-8 8H8a8 8 0 01-8-8V8z" fill="#F2F3F4" /><path d="M8 23h24v-3H8v3z" fill="#85ACB0" /><path d="M12.5 24.5v2.379l2.379-2.379h4.242l-6 6H9.5v-6h3zM29 9.5a3 3 0 013 3v6.006h-2.59a2.96 2.96 0 01-.41-1.485v-2.4L23.627 20h-4.242l7.5-7.5h-2.4A2.985 2.985 0 0121.5 9.515V9.5H29z" fill="#FF444F" /><path d="M40 20h24v-3H40v3z" fill="#85ACB0" /><path d="M55.621 20L61 25.385v-2.4a2.96 2.96 0 01.41-1.485H64v6a3 3 0 01-3 3h-7.5v-.015a2.985 2.985 0 012.979-2.985h2.4l-7.5-7.5h4.242zm-10.5-10.5l6 6h-4.242L44.5 13.121V15.5h-3v-6h3.621z" fill="#FF444F" /></symbol><symbol fill="none" viewBox="0 0 72 40" id="ic-option-matches-differs"><path d="M0 8a8 8 0 018-8h56a8 8 0 018 8v24a8 8 0 01-8 8H8a8 8 0 01-8-8V8z" fill="#F2F3F4" /><g clip-path="url(#ic-option-matches-differs_clip0)"><path d="M13.26 11.515l6.362 6.364a3 3 0 010 4.242l-6.363 6.365-.009-.01a2.982 2.982 0 010-4.222l2.751-2.754L8 21.518V18.5h8.001l-2.751-2.752a2.983 2.983 0 010-4.223l.01-.01zm13.48 0l.01.01a2.982 2.982 0 010 4.221L23.999 18.5 32 18.482V21.5h-8.001l2.753 2.753a2.983 2.983 0 010 4.222l-.011.01-5.241-5.24 1.122-1.124a3 3 0 000-4.242L21.5 16.756l5.24-5.241z" fill="#FF444F" /><path d="M21.5 26v6h-3v-6h3zm0-18v6h-3V8h3z" fill="#85ACB0" /></g><path d="M63.25 19.982V23h-8.001L58 25.753a2.984 2.984 0 010 4.222l-.009.01L52 23.996l3.372-3.372c.182-.187.338-.396.465-.623l7.413-.018zM46.009 8.515l6.363 6.364a3 3 0 010 4.242l-6.363 6.365-.009-.01a2.982 2.982 0 010-4.222l2.751-2.754-8.001.018V15.5h8.001L46 12.748a2.983 2.983 0 010-4.223l.009-.01zm11.98 4.5a2.982 2.982 0 01.189 4.042L58 17.25l-1.8 1.8a3 3 0 00-.661-2.49l-.167-.182-.372-.373 2.99-2.991z" fill="#FF444F" /><path d="M54.25 27.5V32h-3v-4.5h3zm0-19.5v4.5h-3V8h3z" fill="#85ACB0" /><defs></defs></symbol><clipPath id="ic-option-matches-differs_clip0"><path fill="#fff" transform="translate(8 8)" d="M0 0h24v24H0z" /></clipPath><symbol fill="none" viewBox="0 0 72 40" id="ic-option-only-up-down"><path d="M0 8a8 8 0 018-8h56a8 8 0 018 8v24a8 8 0 01-8 8H8a8 8 0 01-8-8V8z" fill="#F2F3F4" /><path d="M14 29v3h-3v-3h3zM32 8v24h-3V8h3zm-6 12v12h-3V20h3zm-6 6v6h-3v-6h3zm-6.879-3l-3 3H8v-3h5.121z" fill="#85ACB0" /><path d="M23 8h-7.5v.015A2.985 2.985 0 0018.485 11h2.4L14 17.879v4.242l9-9v2.4a2.985 2.985 0 002.985 2.979H26V11a3 3 0 00-3-3z" fill="#FF444F" /><g clip-path="url(#ic-option-only-up-down_clip0)"><path d="M64 8v24h-3V8h3zm-6 0v12h-3V8h3zm-15.879 6l3 3H40v-3h2.121zM52 8v6h-3V8h3zm-6 0v3h-3V8h3z" fill="#85ACB0" /><path d="M57.985 21.5A2.985 2.985 0 0055 24.485v2.4l-9-9v4.236L52.879 29h-2.394a2.985 2.985 0 00-2.985 2.985V32H55a3 3 0 003-3v-7.5h-.015z" fill="#FF444F" /></g><defs></defs></symbol><clipPath id="ic-option-only-up-down_clip0"><path fill="#fff" transform="translate(40 8)" d="M0 0h24v24H0z" /></clipPath><symbol fill="none" viewBox="0 0 72 40" id="ic-option-over-under"><path d="M0 8a8 8 0 018-8h56a8 8 0 018 8v24a8 8 0 01-8 8H8a8 8 0 01-8-8V8z" fill="#F2F3F4" /><g clip-path="url(#ic-option-over-under_clip0)"><path d="M16.158 27.5l-2.985 3H8.88l3-3h4.28zM29 9.5a3 3 0 013 3v9h-.015A2.985 2.985 0 0129 18.515v-3.9l-9 9.03v-4.266l6.879-6.879h-3.894A2.985 2.985 0 0120 9.515V9.5h9z" fill="#FF444F" /><path d="M32 24.5H8v3h24v-3z" fill="#85ACB0" /></g><g clip-path="url(#ic-option-over-under_clip1)"><path d="M52 16.355l9 9.03v-3.9a2.985 2.985 0 012.985-2.985H64v9a3 3 0 01-3 3h-9v-.015a2.985 2.985 0 012.985-2.985h3.894l-6.88-6.879v-4.266zM45.173 9.5l2.985 3h-4.28l-3-3h4.295z" fill="#FF444F" /><path d="M64 12.5H40v3h24v-3z" fill="#85ACB0" /></g><defs></defs></symbol><clipPath id="ic-option-over-under_clip0"><path fill="#fff" transform="translate(8 8)" d="M0 0h24v24H0z" /></clipPath><clipPath id="ic-option-over-under_clip1"><path fill="#fff" transform="translate(40 8)" d="M0 0h24v24H0z" /></clipPath><symbol fill="none" viewBox="0 0 72 40" id="ic-option-raise-fall"><path d="M0 8a8 8 0 018-8h56a8 8 0 018 8v24a8 8 0 01-8 8H8a8 8 0 01-8-8V8z" fill="#F2F3F4" /><path d="M29 8h-7.5v.015A2.985 2.985 0 0024.485 11h2.4L14 23.879v4.242l15-15v2.4a2.985 2.985 0 002.985 2.979H32V11a3 3 0 00-3-3z" fill="#FF444F" /><path d="M10.121 32H8v-3h5.121L11 31.121l-.879.879z" fill="#85ACB0" /><path d="M63.985 21.5A2.985 2.985 0 0061 24.485v2.4l-15-15v4.236L58.879 29h-2.4a2.985 2.985 0 00-2.979 2.985V32H61a3 3 0 003-3v-7.5h-.015z" fill="#FF444F" /><path d="M40 11V8h2.121l.879.879L45.121 11H40z" fill="#85ACB0" /></symbol><symbol fill="none" viewBox="0 0 72 40" id="ic-option-touch-notouch"><path d="M0 8a8 8 0 018-8h56a8 8 0 018 8v24a8 8 0 01-8 8H8a8 8 0 01-8-8V8z" fill="#F2F3F4" /><g clip-path="url(#ic-option-touch-notouch_clip0)"><path d="M16.136 29L14 31.139l-.861.861H8v-3h8.136zM32 8v3H8V8h24z" fill="#85ACB0" /><path d="M31.985 23H32v-9a3 3 0 00-3-3h-9v.015A2.985 2.985 0 0022.985 14h3.9L17 23.879v4.255l12-12.013v3.9A2.985 2.985 0 0031.985 23z" fill="#FF444F" /></g><path d="M45.121 29l-3 3H40v-3h5.121zM64 8v3H40V8h24z" fill="#85ACB0" /><path d="M63.985 18.5A2.985 2.985 0 0061 21.485v2.4L55.621 18.5a3 3 0 00-4.242 0L46 23.88v4.241l7.5-7.5 5.379 5.38h-2.4a2.985 2.985 0 00-2.979 2.984V29H61a3 3 0 003-3v-7.5h-.015z" fill="#FF444F" /><defs></defs></symbol><clipPath id="ic-option-touch-notouch_clip0"><path fill="#fff" transform="translate(8 8)" d="M0 0h24v24H0z" /></clipPath><symbol fill="none" viewBox="0 0 72 40" id="ic-option-up-down-asian"><path d="M0 8a8 8 0 018-8h56a8 8 0 018 8v24a8 8 0 01-8 8H8a8 8 0 01-8-8V8z" fill="#F2F3F4" /><g clip-path="url(#ic-option-up-down-asian_clip0)"><path d="M32 29v3H8v-3h24zm0-9v3H8v-3h24zm-12-9v3H8v-3h12z" fill="#85ACB0" /><path d="M17.62 24.5l-4.5 4.5H8.88l4.5-4.5h4.242zM29 8a3 3 0 013 3v7.5h-.015A2.985 2.985 0 0129 15.521v-2.4L22.12 20h-4.235l9-9h-2.4A2.985 2.985 0 0121.5 8.015V8H29z" fill="#FF444F" /></g><g clip-path="url(#ic-option-up-down-asian_clip1)"><path d="M52 26v3H40v-3h12zm12-9v3H40v-3h24zm0-9v3H40V8h24z" fill="#85ACB0" /><path d="M54.12 20L61 26.885v-2.4a2.985 2.985 0 012.985-2.985H64V29a3 3 0 01-3 3h-7.5v-.015A2.985 2.985 0 0156.479 29h2.4l-9-9h4.242zm-9-9l4.5 4.5H45.38l-4.5-4.5h4.242z" fill="#FF444F" /></g><defs></defs></symbol><clipPath id="ic-option-up-down-asian_clip0"><path fill="#fff" transform="translate(8 8)" d="M0 0h24v24H0z" /></clipPath><clipPath id="ic-option-up-down-asian_clip1"><path fill="#fff" transform="translate(40 8)" d="M0 0h24v24H0z" /></clipPath></defs></svg>