<svg xmlns="http://www.w3.org/2000/svg" xmlns:xlink="http://www.w3.org/1999/xlink"><defs><symbol viewBox="0 0 32 32" fill="none" id="ic-rebranding-ctrader-dashboard"><path d="M6 0a6 6 0 00-6 6v.174l29.914-4.721A5.977 5.977 0 0026 0H6zM30.532 2.068L25.044 32H26a6 6 0 006-6V6c0-1.504-.554-2.88-1.468-3.932z" fill="#B51E1E" /><path fill-rule="evenodd" clip-rule="evenodd" d="M25.044 32H6a6 6 0 01-6-6V6.174l29.914-4.721c.22.19.427.395.617.615L25.044 32z" fill="#E22526" /><path d="M9.007 17.071c0-.532.084-1.031.252-1.498a3.596 3.596 0 011.946-2.072c.466-.205.998-.308 1.596-.308.392 0 .751.037 1.078.112.327.065.644.163.952.294l-.434 1.666a5.27 5.27 0 00-.644-.196 3.366 3.366 0 00-.784-.084c-.616 0-1.078.191-1.386.574-.299.383-.448.887-.448 1.512 0 .663.14 1.176.42 1.54.29.364.789.546 1.498.546.252 0 .522-.023.812-.07.29-.047.555-.121.798-.224l.294 1.708a4.887 4.887 0 01-.91.266 6 6 0 01-1.204.112c-.672 0-1.25-.098-1.736-.294a3.411 3.411 0 01-1.204-.826 3.329 3.329 0 01-.686-1.218c-.14-.476-.21-.99-.21-1.54zM22.993 11.051v1.862h-2.926v7.84h-2.184v-7.84h-2.926v-1.862h8.036z" fill="#fff" /></symbol><symbol fill="none" viewBox="0 0 345 72" id="ic-rebranding-deriv-bot"><path fill="#FF444F" d="M0 13.5C0 6.044 6.044 0 13.5 0h45C65.956 0 72 6.044 72 13.5v45C72 65.956 65.956 72 58.5 72h-45C6.044 72 0 65.956 0 58.5v-45Z" /><path fill="#E12E3A" d="M13.5 0C6.044 0 0 6.044 0 13.5v.392L67.308 3.268A13.447 13.447 0 0 0 58.5 0h-45ZM68.697 4.652 56.35 72h2.15C65.956 72 72 65.956 72 58.5v-45c0-3.384-1.246-6.478-3.303-8.848Z" /><path fill="#fff" d="M21.63 42.86c.23.02.493.042.787.063h1.103c2.457 0 4.273-.62 5.45-1.859 1.196-1.239 1.795-2.95 1.795-5.134 0-2.29-.567-4.022-1.701-5.198-1.134-1.176-2.93-1.764-5.387-1.764-.336 0-.682.01-1.04.032-.356 0-.692.02-1.007.063V42.86Zm14.206-6.93c0 1.89-.294 3.538-.882 4.945-.588 1.407-1.428 2.573-2.52 3.497-1.07.924-2.383 1.617-3.937 2.079-1.554.462-3.297.693-5.23.693-.881 0-1.91-.042-3.086-.126a23.682 23.682 0 0 1-3.465-.441V25.314c1.134-.21 2.31-.346 3.528-.41 1.239-.083 2.3-.125 3.181-.125 1.87 0 3.56.21 5.072.63 1.533.42 2.845 1.081 3.937 1.984 1.092.903 1.932 2.058 2.52 3.465.588 1.407.882 3.098.882 5.072ZM45.642 47.144c-1.197 0-2.394-.042-3.59-.126a23.814 23.814 0 0 1-3.686-.504V25.346a29.034 29.034 0 0 1 3.307-.41 38.371 38.371 0 0 1 3.34-.157c1.385 0 2.656.105 3.81.315 1.177.189 2.185.525 3.025 1.008a5.201 5.201 0 0 1 1.953 1.921c.483.777.724 1.743.724 2.898 0 1.743-.84 3.119-2.52 4.127 1.386.525 2.331 1.239 2.835 2.142.504.903.756 1.921.756 3.055 0 2.29-.84 4.011-2.52 5.166-1.659 1.155-4.137 1.733-7.434 1.733Zm-2.488-9.797v5.639c.357.042.745.073 1.165.094.42.021.882.032 1.386.032 1.47 0 2.657-.21 3.56-.63.903-.42 1.354-1.197 1.354-2.331 0-1.008-.378-1.722-1.134-2.142-.756-.441-1.837-.662-3.244-.662h-3.087Zm0-3.748h2.394c1.512 0 2.593-.19 3.244-.567.651-.4.977-1.03.977-1.89 0-.882-.336-1.502-1.008-1.859-.672-.357-1.66-.535-2.961-.535-.42 0-.872.01-1.355.031-.483 0-.913.021-1.291.063V33.6Z" /><path fill="var(--text-general)" fill-rule="evenodd" d="m108.739 19.162-1.772 10.051h-6.152c-5.74 0-11.21 4.65-12.224 10.39l-.43 2.443c-1.009 5.74 2.82 10.39 8.56 10.39h5.131c4.183 0 8.168-3.387 8.904-7.57l4.726-26.788-6.743 1.084Zm-4.365 24.756c-.227 1.292-1.39 2.344-2.682 2.344h-3.117c-2.58 0-4.306-2.094-3.854-4.678l.27-1.524c.457-2.58 2.918-4.678 5.498-4.678h5.39l-1.505 8.536Z" clip-rule="evenodd" /><path fill="var(--text-general)" d="M156.118 52.437h6.385l4.037-22.902h-6.385l-4.037 22.902ZM156.331 32.521v-.005l.48-2.717c-6.552-1.688-11.656.059-13.734.92 0 0-2.965 16.803-3.832 21.724h6.389l3.11-17.644c.959-.19 4.08-.49 7.105.45l.482-2.728Z" /><path fill="var(--text-general)" fill-rule="evenodd" d="M130.914 29.21h-4.966c-4.844 0-9.461 3.925-10.314 8.768l-1.005 5.692c-.853 4.844 2.377 8.768 7.221 8.768h10.573l1.085-6.155h-9.937c-1.613 0-2.693-1.306-2.405-2.924l.033-.193h16.02l.915-5.188c.854-4.843-2.377-8.767-7.22-8.767Zm.811 8.278-.038.33h-9.526l.052-.293c.287-1.613 1.759-3.032 3.376-3.032h3.721c1.599 0 2.679 1.396 2.415 2.995Z" clip-rule="evenodd" /><path fill="var(--text-general)" d="M177.639 44.641c2.899-5.216 6.095-12.06 7.427-15.106h6.395c-2.177 5.788-7.165 15.633-11.998 22.902h-6.39c-2.218-6.918-3.65-16.558-3.924-22.902h6.391c.115 2.07 1.041 9.744 2.099 15.106ZM210.694 53.685c-1.796 0-3.591-.063-5.387-.189a35.726 35.726 0 0 1-5.528-.756V20.988a43.561 43.561 0 0 1 4.961-.614 57.569 57.569 0 0 1 5.009-.236c2.079 0 3.985.157 5.717.472 1.764.284 3.276.788 4.536 1.512 1.26.725 2.237 1.686 2.93 2.883.724 1.165 1.086 2.614 1.086 4.347 0 2.614-1.26 4.677-3.78 6.19 2.079.787 3.497 1.858 4.253 3.212.756 1.355 1.134 2.883 1.134 4.584 0 3.433-1.26 6.016-3.78 7.749-2.489 1.732-6.206 2.598-11.151 2.598Zm-3.733-14.694v8.458c.536.063 1.118.11 1.748.141.63.032 1.323.047 2.079.047 2.205 0 3.985-.315 5.34-.944 1.354-.63 2.031-1.796 2.031-3.497 0-1.512-.567-2.583-1.701-3.213-1.134-.661-2.756-.992-4.866-.992h-4.631Zm0-5.623h3.591c2.268 0 3.89-.284 4.867-.85.976-.599 1.465-1.544 1.465-2.835 0-1.323-.504-2.253-1.512-2.788-1.008-.536-2.489-.804-4.442-.804-.63 0-1.307.016-2.032.048-.724 0-1.37.031-1.937.094v7.135ZM251.937 40.786c0 1.953-.283 3.749-.85 5.387-.567 1.606-1.386 2.992-2.457 4.158-1.071 1.134-2.363 2.016-3.875 2.646-1.48.63-3.15.945-5.008.945-1.827 0-3.497-.315-5.009-.945a11.27 11.27 0 0 1-3.827-2.646c-1.071-1.166-1.906-2.552-2.504-4.158-.599-1.638-.898-3.434-.898-5.387 0-1.953.299-3.733.898-5.339.63-1.607 1.48-2.977 2.551-4.11a11.778 11.778 0 0 1 3.875-2.647c1.512-.63 3.15-.945 4.914-.945 1.795 0 3.433.315 4.914.945 1.512.63 2.803 1.512 3.874 2.646 1.071 1.134 1.906 2.505 2.504 4.111.599 1.606.898 3.386.898 5.34Zm-7.182 0c0-2.173-.441-3.874-1.323-5.103-.85-1.26-2.079-1.89-3.685-1.89-1.607 0-2.851.63-3.733 1.89-.882 1.229-1.323 2.93-1.323 5.103 0 2.174.441 3.906 1.323 5.198.882 1.26 2.126 1.89 3.733 1.89 1.606 0 2.835-.63 3.685-1.89.882-1.292 1.323-3.024 1.323-5.198ZM254.792 22.217l7.04-1.134v7.324h8.458v5.859h-8.458v8.741c0 1.48.252 2.662.756 3.544.536.882 1.591 1.323 3.166 1.323.756 0 1.528-.063 2.315-.19.819-.157 1.56-.361 2.221-.613l.992 5.48a19.99 19.99 0 0 1-2.835.898c-1.039.252-2.315.378-3.827.378-1.921 0-3.512-.252-4.772-.756-1.26-.535-2.268-1.26-3.024-2.173-.756-.945-1.292-2.08-1.607-3.402-.283-1.323-.425-2.788-.425-4.395V22.218Z" /></symbol><symbol fill="none" viewBox="0 0 72 72" id="ic-rebranding-deriv-bot-dashboard"><path fill="#FF444F" d="M0 13.5C0 6.044 6.044 0 13.5 0h45C65.956 0 72 6.044 72 13.5v45C72 65.956 65.956 72 58.5 72h-45C6.044 72 0 65.956 0 58.5v-45Z" /><path fill="#E12E3A" d="M13.5 0C6.044 0 0 6.044 0 13.5v.392L67.308 3.268A13.447 13.447 0 0 0 58.5 0h-45ZM68.697 4.652 56.35 72h2.15C65.956 72 72 65.956 72 58.5v-45c0-3.384-1.246-6.478-3.303-8.848Z" /><path fill="#fff" d="M21.63 42.86c.23.02.493.042.787.063h1.103c2.457 0 4.273-.62 5.45-1.859 1.196-1.239 1.795-2.95 1.795-5.134 0-2.29-.567-4.022-1.701-5.198-1.134-1.176-2.93-1.764-5.387-1.764-.336 0-.682.01-1.04.032-.356 0-.692.02-1.007.063V42.86Zm14.206-6.93c0 1.89-.294 3.538-.882 4.945-.588 1.407-1.428 2.573-2.52 3.497-1.07.924-2.383 1.617-3.937 2.079-1.554.462-3.297.693-5.23.693-.881 0-1.91-.042-3.086-.126a23.682 23.682 0 0 1-3.465-.441V25.314c1.134-.21 2.31-.346 3.528-.41 1.239-.083 2.3-.125 3.181-.125 1.87 0 3.56.21 5.072.63 1.533.42 2.845 1.081 3.937 1.984 1.092.903 1.932 2.058 2.52 3.465.588 1.407.882 3.098.882 5.072ZM45.642 47.144c-1.197 0-2.394-.042-3.59-.126a23.814 23.814 0 0 1-3.686-.504V25.346a29.034 29.034 0 0 1 3.307-.41 38.371 38.371 0 0 1 3.34-.157c1.385 0 2.656.105 3.81.315 1.177.189 2.185.525 3.025 1.008a5.201 5.201 0 0 1 1.953 1.921c.483.777.724 1.743.724 2.898 0 1.743-.84 3.119-2.52 4.127 1.386.525 2.331 1.239 2.835 2.142.504.903.756 1.921.756 3.055 0 2.29-.84 4.011-2.52 5.166-1.659 1.155-4.137 1.733-7.434 1.733Zm-2.488-9.797v5.639c.357.042.745.073 1.165.094.42.021.882.032 1.386.032 1.47 0 2.657-.21 3.56-.63.903-.42 1.354-1.197 1.354-2.331 0-1.008-.378-1.722-1.134-2.142-.756-.441-1.837-.662-3.244-.662h-3.087Zm0-3.748h2.394c1.512 0 2.593-.19 3.244-.567.651-.4.977-1.03.977-1.89 0-.882-.336-1.502-1.008-1.859-.672-.357-1.66-.535-2.961-.535-.42 0-.872.01-1.355.031-.483 0-.913.021-1.291.063V33.6Z" /></symbol><symbol fill="none" viewBox="0 0 32 32" id="ic-rebranding-deriv-go-dashboard"><path fill="#FF444F" d="M0 6a6 6 0 0 1 6-6h20a6 6 0 0 1 6 6v20a6 6 0 0 1-6 6H6a6 6 0 0 1-6-6V6Z" /><path fill="#E12E3A" d="M6 0a6 6 0 0 0-6 6v.174l29.914-4.721A5.976 5.976 0 0 0 26 0H6ZM30.532 2.068 25.044 32H26a6 6 0 0 0 6-6V6c0-1.504-.553-2.88-1.468-3.932Z" /><path fill="#fff" d="M11.757 12.843c-1.017 0-1.755.285-2.212.854-.448.56-.672 1.33-.672 2.31 0 .476.056.91.168 1.302.112.383.28.714.504.994.224.28.504.5.84.658.336.15.728.224 1.176.224.243 0 .448-.005.616-.014.177-.01.331-.028.462-.056v-3.374h2.184v4.802c-.261.103-.681.21-1.26.322-.579.121-1.293.182-2.142.182-.728 0-1.39-.112-1.988-.336a4.152 4.152 0 0 1-1.512-.98 4.453 4.453 0 0 1-.98-1.582c-.224-.625-.336-1.34-.336-2.142 0-.812.126-1.53.378-2.156a4.57 4.57 0 0 1 1.036-1.582c.439-.439.952-.77 1.54-.994a5.378 5.378 0 0 1 1.904-.336c.457 0 .868.033 1.232.098.373.056.69.126.952.21.27.075.49.154.658.238.177.084.303.15.378.196l-.63 1.75a5.333 5.333 0 0 0-1.036-.406 4.153 4.153 0 0 0-1.26-.182ZM17.989 16.007c0 .476.056.905.168 1.288.121.383.29.714.504.994.224.27.495.48.812.63.317.15.681.224 1.092.224.401 0 .76-.075 1.078-.224.327-.15.597-.36.812-.63.224-.28.392-.611.504-.994a4.25 4.25 0 0 0 .182-1.288c0-.476-.06-.905-.182-1.288a2.7 2.7 0 0 0-.504-.994 2.114 2.114 0 0 0-.812-.644 2.502 2.502 0 0 0-1.078-.224c-.41 0-.775.08-1.092.238-.317.15-.588.364-.812.644a3.02 3.02 0 0 0-.504.994 4.527 4.527 0 0 0-.168 1.274Zm7.406 0c0 .83-.126 1.563-.378 2.198a4.508 4.508 0 0 1-1.008 1.582c-.43.42-.943.737-1.54.952a5.51 5.51 0 0 1-1.904.322 5.427 5.427 0 0 1-1.876-.322 4.362 4.362 0 0 1-1.54-.952 4.57 4.57 0 0 1-1.036-1.582c-.252-.635-.378-1.367-.378-2.198 0-.83.13-1.559.392-2.184a4.71 4.71 0 0 1 1.05-1.596c.448-.43.961-.751 1.54-.966a5.348 5.348 0 0 1 1.848-.322c.663 0 1.288.107 1.876.322a4.267 4.267 0 0 1 1.54.966c.439.43.784.961 1.036 1.596.252.625.378 1.353.378 2.184Z" /></symbol><symbol fill="none" viewBox="0 0 345 72" id="ic-rebranding-deriv-trader"><path fill="#FF444F" d="M0 13.5C0 6.044 6.044 0 13.5 0h45C65.956 0 72 6.044 72 13.5v45C72 65.956 65.956 72 58.5 72h-45C6.044 72 0 65.956 0 58.5v-45Z" /><path fill="#E12E3A" d="M13.5 0C6.044 0 0 6.044 0 13.5v.392L67.308 3.268A13.447 13.447 0 0 0 58.5 0h-45ZM68.697 4.652 56.35 72h2.15C65.956 72 72 65.956 72 58.5v-45c0-3.384-1.246-6.478-3.303-8.848Z" /><path fill="#fff" d="M22.363 42.898c.231.021.494.042.788.063h1.102c2.457 0 4.274-.62 5.45-1.858 1.197-1.24 1.795-2.95 1.795-5.135 0-2.289-.567-4.021-1.7-5.197-1.135-1.176-2.93-1.764-5.387-1.764-.336 0-.683.01-1.04.031-.357 0-.693.021-1.008.063v13.797Zm14.207-6.93c0 1.89-.294 3.539-.882 4.946-.588 1.407-1.428 2.572-2.52 3.496-1.071.924-2.384 1.617-3.938 2.08-1.554.461-3.297.692-5.229.692-.882 0-1.91-.042-3.087-.126a23.682 23.682 0 0 1-3.465-.44V25.352c1.134-.21 2.31-.347 3.528-.41 1.24-.084 2.3-.126 3.182-.126 1.869 0 3.56.21 5.071.63 1.533.42 2.846 1.082 3.938 1.985s1.932 2.058 2.52 3.465c.588 1.407.882 3.097.882 5.071ZM54.552 25.07v4.189h-6.584v17.64h-4.914v-17.64h-6.583v-4.19h18.081Z" /><path fill="var(--text-general)" fill-rule="evenodd" d="m108.739 19.904-1.772 10.051h-6.152c-5.74 0-11.21 4.65-12.224 10.39l-.43 2.443c-1.009 5.74 2.82 10.39 8.56 10.39h5.131c4.183 0 8.168-3.387 8.904-7.57l4.726-26.788-6.743 1.084Zm-4.365 24.756c-.227 1.292-1.39 2.344-2.682 2.344h-3.117c-2.58 0-4.306-2.094-3.854-4.678l.27-1.524c.457-2.58 2.918-4.678 5.498-4.678h5.39l-1.505 8.536Z" clip-rule="evenodd" /><path fill="var(--text-general)" d="M156.118 53.18h6.385l4.037-22.903h-6.385l-4.037 22.902ZM156.331 33.263v-.005l.48-2.717c-6.552-1.688-11.656.059-13.734.92 0 0-2.965 16.803-3.832 21.724h6.389l3.11-17.644c.959-.19 4.08-.49 7.105.45l.482-2.728Z" /><path fill="var(--text-general)" fill-rule="evenodd" d="M130.914 29.953h-4.966c-4.844 0-9.461 3.924-10.314 8.767l-1.005 5.693c-.853 4.843 2.377 8.767 7.221 8.767h10.573l1.085-6.155h-9.937c-1.613 0-2.693-1.306-2.405-2.924l.033-.193h16.02l.915-5.188c.854-4.843-2.377-8.767-7.22-8.767Zm.811 8.277-.038.33h-9.526l.052-.293c.287-1.613 1.759-3.032 3.376-3.032h3.721c1.599 0 2.679 1.396 2.415 2.995Z" clip-rule="evenodd" /><path fill="var(--text-general)" d="M177.639 45.383c2.899-5.216 6.095-12.06 7.427-15.106h6.395c-2.177 5.788-7.165 15.633-11.998 22.902h-6.39c-2.218-6.918-3.65-16.558-3.924-22.902h6.391c.115 2.07 1.041 9.744 2.099 15.106ZM224.066 21.258v6.284h-9.876v26.46h-7.371v-26.46h-9.875v-6.284h27.122Z" /><path fill="var(--text-general)" d="M237.67 35.386c-.63-.158-1.37-.315-2.221-.473a12.613 12.613 0 0 0-2.74-.283c-.441 0-.977.047-1.607.142-.598.063-1.055.141-1.37.236v18.994h-7.04v-23.53c1.26-.441 2.74-.85 4.441-1.229 1.733-.41 3.654-.614 5.765-.614.378 0 .834.031 1.37.095.535.031 1.071.094 1.606.189.536.063 1.071.157 1.607.283.535.095.992.22 1.37.378l-1.181 5.812ZM249.299 49.088c.693 0 1.354-.016 1.984-.047a13.81 13.81 0 0 0 1.512-.142V43.56a12.981 12.981 0 0 0-1.276-.189 14.196 14.196 0 0 0-1.559-.095c-.661 0-1.291.048-1.89.142a4.456 4.456 0 0 0-1.512.425c-.441.221-.787.52-1.039.898-.252.378-.378.85-.378 1.418 0 1.102.362 1.874 1.086 2.315.756.41 1.78.614 3.072.614Zm-.567-20.6c2.079 0 3.811.236 5.197.708 1.386.473 2.489 1.15 3.308 2.032.85.882 1.449 1.953 1.795 3.213.347 1.26.52 2.661.52 4.205v14.648c-1.008.22-2.41.472-4.205.756-1.796.315-3.969.472-6.521.472-1.606 0-3.071-.142-4.394-.425-1.292-.284-2.41-.74-3.355-1.37a6.555 6.555 0 0 1-2.173-2.552c-.504-1.04-.756-2.315-.756-3.827 0-1.45.283-2.678.85-3.686a6.926 6.926 0 0 1 2.363-2.41c.976-.598 2.094-1.023 3.354-1.275a17.82 17.82 0 0 1 3.922-.425c.914 0 1.717.047 2.41.141.724.063 1.307.158 1.748.284v-.662c0-1.197-.362-2.157-1.087-2.882-.724-.724-1.984-1.087-3.78-1.087-1.197 0-2.378.095-3.543.284-1.166.157-2.174.393-3.024.709l-.898-5.67c.409-.127.913-.253 1.512-.378.63-.158 1.307-.284 2.032-.378.724-.127 1.48-.221 2.268-.284a21.418 21.418 0 0 1 2.457-.142ZM269.556 41.386c0 2.174.489 3.922 1.465 5.245.977 1.323 2.426 1.985 4.347 1.985.63 0 1.213-.016 1.748-.047.536-.064.977-.127 1.323-.19V35.575c-.441-.284-1.023-.52-1.748-.709a8.046 8.046 0 0 0-2.126-.283c-3.339 0-5.009 2.267-5.009 6.803ZM285.48 53.2c-.63.189-1.355.378-2.174.567-.819.157-1.685.3-2.599.425-.882.126-1.795.22-2.74.284-.914.094-1.796.142-2.646.142-2.048 0-3.875-.3-5.481-.898-1.607-.599-2.961-1.45-4.064-2.552-1.102-1.134-1.953-2.488-2.551-4.063-.567-1.607-.851-3.402-.851-5.387 0-2.016.252-3.827.756-5.434.504-1.638 1.229-3.023 2.174-4.157a9.352 9.352 0 0 1 3.449-2.6c1.386-.598 2.961-.897 4.725-.897.977 0 1.843.095 2.599.284.787.189 1.575.456 2.362.803V18.47l7.041-1.134V53.2ZM288.528 41.764c0-2.205.331-4.126.992-5.764.693-1.67 1.591-3.056 2.694-4.158a11.153 11.153 0 0 1 3.78-2.504 12.09 12.09 0 0 1 4.441-.85c3.528 0 6.316 1.086 8.363 3.26 2.048 2.141 3.072 5.307 3.072 9.497 0 .41-.016.866-.048 1.37a78.32 78.32 0 0 1-.094 1.276h-15.971c.158 1.449.835 2.599 2.032 3.449 1.197.85 2.804 1.276 4.82 1.276 1.291 0 2.551-.11 3.78-.331 1.26-.252 2.283-.551 3.071-.898l.945 5.718c-.378.189-.882.378-1.512.567-.63.189-1.339.346-2.126.472-.756.157-1.575.284-2.457.378a24.82 24.82 0 0 1-2.646.142c-2.237 0-4.19-.331-5.859-.992-1.638-.662-3.009-1.56-4.111-2.694-1.071-1.165-1.874-2.535-2.41-4.11-.504-1.576-.756-3.276-.756-5.104Zm16.538-2.693a6.621 6.621 0 0 0-.331-1.748 3.903 3.903 0 0 0-.803-1.512c-.347-.441-.804-.803-1.371-1.087-.535-.283-1.212-.425-2.031-.425-.788 0-1.465.142-2.032.425a3.949 3.949 0 0 0-1.418 1.04c-.378.44-.677.96-.897 1.559-.189.567-.331 1.15-.426 1.748h9.309ZM329.918 35.386c-.63-.158-1.37-.315-2.22-.473a12.623 12.623 0 0 0-2.741-.283c-.441 0-.976.047-1.606.142-.599.063-1.056.141-1.371.236v18.994h-7.04v-23.53c1.26-.441 2.741-.85 4.442-1.229 1.732-.41 3.654-.614 5.764-.614.378 0 .835.031 1.37.095a13.96 13.96 0 0 1 1.607.189 14.3 14.3 0 0 1 1.606.283c.536.095.993.22 1.371.378l-1.182 5.812Z" /></symbol><symbol fill="none" viewBox="0 0 72 72" id="ic-rebranding-deriv-trader-dashboard"><path fill="#FF444F" d="M0 13.5C0 6.044 6.044 0 13.5 0h45C65.956 0 72 6.044 72 13.5v45C72 65.956 65.956 72 58.5 72h-45C6.044 72 0 65.956 0 58.5v-45Z" /><path fill="#E12E3A" d="M13.5 0C6.044 0 0 6.044 0 13.5v.392L67.308 3.268A13.447 13.447 0 0 0 58.5 0h-45ZM68.697 4.652 56.35 72h2.15C65.956 72 72 65.956 72 58.5v-45c0-3.384-1.246-6.478-3.303-8.848Z" /><path fill="#fff" d="M22.363 42.898c.231.021.494.042.788.063h1.102c2.457 0 4.274-.62 5.45-1.858 1.197-1.24 1.795-2.95 1.795-5.135 0-2.289-.567-4.021-1.7-5.197-1.135-1.176-2.93-1.764-5.387-1.764-.336 0-.683.01-1.04.031-.357 0-.693.021-1.008.063v13.797Zm14.207-6.93c0 1.89-.294 3.539-.882 4.946-.588 1.407-1.428 2.572-2.52 3.496-1.071.924-2.384 1.617-3.938 2.08-1.554.461-3.297.692-5.229.692-.882 0-1.91-.042-3.087-.126a23.682 23.682 0 0 1-3.465-.44V25.352c1.134-.21 2.31-.347 3.528-.41 1.24-.084 2.3-.126 3.182-.126 1.869 0 3.56.21 5.071.63 1.533.42 2.846 1.082 3.938 1.985s1.932 2.058 2.52 3.465c.588 1.407.882 3.097.882 5.071ZM54.552 25.07v4.189h-6.584v17.64h-4.914v-17.64h-6.583v-4.19h18.081Z" /></symbol><symbol fill="none" viewBox="0 0 32 32" id="ic-rebranding-deriv-x"><path fill="#FF444F" d="M0 6a6 6 0 0 1 6-6h20a6 6 0 0 1 6 6v20a6 6 0 0 1-6 6H6a6 6 0 0 1-6-6V6z" /><path fill="#E12E3A" d="M6 0a6 6 0 0 0-6 6v.174l29.914-4.721A5.976 5.976 0 0 0 26 0H6zm24.532 2.068L25.044 32H26a6 6 0 0 0 6-6V6c0-1.504-.553-2.88-1.468-3.932z" /><path fill="#fff" d="M9.544 19.066c.103.01.22.019.35.028h.49c1.092 0 1.9-.275 2.422-.826.532-.55.798-1.311.798-2.282 0-1.017-.252-1.787-.756-2.31-.504-.523-1.302-.784-2.394-.784a7.9 7.9 0 0 0-.462.014c-.158 0-.308.01-.448.028v6.132zm6.314-3.08c0 .84-.13 1.573-.392 2.198a4.039 4.039 0 0 1-1.12 1.554c-.476.41-1.06.719-1.75.924-.69.205-1.465.308-2.324.308-.392 0-.85-.019-1.372-.056a10.52 10.52 0 0 1-1.54-.196v-9.45a12.018 12.018 0 0 1 1.568-.182 21.39 21.39 0 0 1 1.414-.056c.83 0 1.582.093 2.254.28.682.187 1.265.48 1.75.882a3.92 3.92 0 0 1 1.12 1.54c.262.625.392 1.377.392 2.254z" /><path fill="#fff" d="M22.021 20.844a25.705 25.705 0 0 0-.896-1.638c-.317-.56-.686-1.13-1.106-1.708-.13.168-.298.401-.504.7-.196.299-.396.616-.602.952-.196.336-.382.658-.56.966-.177.308-.308.55-.392.728H15.47c.411-.756.887-1.55 1.428-2.38a84.637 84.637 0 0 1 1.834-2.646l-3.122-4.676h2.646l1.89 3.024 1.848-3.024h2.492l-3.08 4.704a32.63 32.63 0 0 1 1.974 2.828c.532.859.952 1.582 1.26 2.17h-2.618z" /></symbol><symbol fill="none" viewBox="0 0 32 32" id="ic-rebranding-derivx"><path fill="#FF444F" d="M0 6a6 6 0 0 1 6-6h20a6 6 0 0 1 6 6v20a6 6 0 0 1-6 6H6a6 6 0 0 1-6-6V6z" /><path fill="#E12E3A" d="M6 0a6 6 0 0 0-6 6v.174l29.914-4.721A5.976 5.976 0 0 0 26 0H6zm24.532 2.068L25.044 32H26a6 6 0 0 0 6-6V6c0-1.504-.553-2.88-1.468-3.932z" /><path fill="#fff" d="M9.544 19.066c.103.01.22.019.35.028h.49c1.092 0 1.9-.275 2.422-.826.532-.55.798-1.311.798-2.282 0-1.017-.252-1.787-.756-2.31-.504-.523-1.302-.784-2.394-.784a7.9 7.9 0 0 0-.462.014c-.158 0-.308.01-.448.028v6.132zm6.314-3.08c0 .84-.13 1.573-.392 2.198a4.039 4.039 0 0 1-1.12 1.554c-.476.41-1.06.719-1.75.924-.69.205-1.465.308-2.324.308-.392 0-.85-.019-1.372-.056a10.52 10.52 0 0 1-1.54-.196v-9.45a12.018 12.018 0 0 1 1.568-.182 21.39 21.39 0 0 1 1.414-.056c.83 0 1.582.093 2.254.28.682.187 1.265.48 1.75.882a3.92 3.92 0 0 1 1.12 1.54c.262.625.392 1.377.392 2.254z" /><path fill="#fff" d="M22.021 20.844a25.705 25.705 0 0 0-.896-1.638c-.317-.56-.686-1.13-1.106-1.708-.13.168-.298.401-.504.7-.196.299-.396.616-.602.952-.196.336-.382.658-.56.966-.177.308-.308.55-.392.728H15.47c.411-.756.887-1.55 1.428-2.38a84.637 84.637 0 0 1 1.834-2.646l-3.122-4.676h2.646l1.89 3.024 1.848-3.024h2.492l-3.08 4.704a32.63 32.63 0 0 1 1.974 2.828c.532.859.952 1.582 1.26 2.17h-2.618z" /></symbol><symbol fill="none" viewBox="0 0 345 72" id="ic-rebranding-dmt5"><path fill="#0364B9" d="M0 13.5C0 6.044 6.044 0 13.5 0h45C65.956 0 72 6.044 72 13.5v45C72 65.956 65.956 72 58.5 72h-45C6.044 72 0 65.956 0 58.5v-45Z" /><path fill="#0A559E" d="M13.5 0C6.044 0 0 6.044 0 13.5v.392L67.308 3.268A13.447 13.447 0 0 0 58.5 0h-45Zm55.197 4.652L56.35 72h2.15C65.956 72 72 65.956 72 58.5v-45c0-3.384-1.246-6.478-3.303-8.848Z" /><path fill="#fff" d="M16.676 26.403c.324.594.693 1.332 1.107 2.214a62.43 62.43 0 0 1 1.323 2.835c.468 1.008.927 2.043 1.377 3.105l1.269 2.997 1.269-2.997c.45-1.062.9-2.097 1.35-3.105.468-1.026.909-1.97 1.323-2.835.432-.882.81-1.62 1.134-2.214h3.834c.18 1.242.342 2.637.486 4.185.162 1.53.297 3.132.405 4.806.126 1.656.234 3.321.324 4.995.108 1.674.198 3.25.27 4.725h-4.104a485.784 485.784 0 0 0-.216-5.94c-.09-2.142-.225-4.302-.405-6.48-.324.756-.684 1.593-1.08 2.511l-1.188 2.754c-.378.918-.747 1.8-1.107 2.646-.36.828-.666 1.54-.918 2.133h-2.943c-.252-.594-.558-1.305-.918-2.133-.36-.846-.738-1.728-1.134-2.646-.378-.918-.765-1.836-1.161-2.754l-1.08-2.51c-.18 2.177-.315 4.337-.405 6.48a484.34 484.34 0 0 0-.216 5.94h-4.104c.072-1.477.153-3.052.243-4.726l.324-4.995c.126-1.674.261-3.276.405-4.806.162-1.548.333-2.943.513-4.185h4.023Zm31.528 0v3.591H42.56v15.12h-4.212v-15.12h-5.643v-3.59h15.498Zm8.916 13.203c0-.522-.116-.98-.35-1.377-.234-.414-.64-.756-1.215-1.026-.576-.27-1.35-.477-2.322-.62-.972-.145-2.196-.217-3.672-.217.198-1.674.36-3.375.486-5.103.126-1.728.225-3.348.297-4.86h10.125v3.375h-6.75a58.318 58.318 0 0 1-.135 1.89 27.059 27.059 0 0 1-.135 1.566c2.628.18 4.563.801 5.805 1.863 1.26 1.044 1.89 2.502 1.89 4.374 0 .864-.153 1.665-.46 2.403a5.17 5.17 0 0 1-1.376 1.917c-.612.54-1.386.963-2.322 1.27-.918.305-1.998.458-3.24.458-.486 0-1-.036-1.54-.108a14.422 14.422 0 0 1-1.538-.243c-.486-.09-.927-.189-1.323-.297a5.195 5.195 0 0 1-.918-.324l.729-3.32c.45.197 1.044.395 1.782.593.738.18 1.62.27 2.646.27 1.242 0 2.142-.243 2.7-.729.558-.504.837-1.089.837-1.755Z" /><path fill="var(--text-general)" fill-rule="evenodd" d="m108.739 19.139-1.772 10.05h-6.152c-5.74 0-11.21 4.65-12.224 10.39l-.43 2.443c-1.009 5.74 2.82 10.39 8.56 10.39h5.131c4.183 0 8.168-3.386 8.904-7.57l4.726-26.787-6.743 1.084Zm-4.365 24.756c-.227 1.292-1.39 2.343-2.682 2.343h-3.117c-2.58 0-4.306-2.094-3.854-4.678l.27-1.523c.457-2.58 2.918-4.679 5.498-4.679h5.39l-1.505 8.537Z" clip-rule="evenodd" /><path fill="var(--text-general)" d="M156.118 52.413h6.385l4.037-22.901h-6.385l-4.037 22.901Zm.213-19.915v-.006l.48-2.716c-6.552-1.689-11.656.058-13.734.919 0 0-2.965 16.803-3.832 21.724h6.389l3.11-17.643c.959-.192 4.08-.49 7.105.45l.482-2.728Z" /><path fill="var(--text-general)" fill-rule="evenodd" d="M130.914 29.187h-4.966c-4.844 0-9.461 3.924-10.314 8.767l-1.005 5.693c-.853 4.843 2.377 8.767 7.221 8.767h10.573l1.085-6.154h-9.937c-1.613 0-2.693-1.307-2.405-2.924l.033-.194h16.02l.915-5.188c.854-4.843-2.377-8.767-7.22-8.767Zm.811 8.277-.038.33h-9.526l.052-.292c.287-1.613 1.759-3.033 3.376-3.033h3.721c1.599 0 2.679 1.396 2.415 2.995Z" clip-rule="evenodd" /><path fill="var(--text-general)" d="M177.639 44.617c2.899-5.216 6.095-12.06 7.427-15.105h6.395c-2.177 5.787-7.165 15.632-11.998 22.901h-6.39c-2.218-6.918-3.65-16.558-3.924-22.901h6.391c.115 2.069 1.041 9.744 2.099 15.105Zm30.834-24.125a73.746 73.746 0 0 1 1.938 3.875 109.801 109.801 0 0 1 2.315 4.961 176.817 176.817 0 0 1 2.41 5.434l2.22 5.245 2.221-5.245c.788-1.859 1.575-3.67 2.363-5.434a287.49 287.49 0 0 1 2.315-4.961 101.858 101.858 0 0 1 1.984-3.875h6.71c.315 2.174.598 4.615.85 7.324.284 2.678.52 5.481.709 8.41.221 2.899.41 5.812.567 8.742.189 2.93.347 5.686.473 8.269h-7.182a870.666 870.666 0 0 0-.378-10.395 281.719 281.719 0 0 0-.709-11.34c-.567 1.323-1.197 2.787-1.89 4.394l-2.079 4.82a439.44 439.44 0 0 1-1.937 4.63 468.439 468.439 0 0 0-1.607 3.733h-5.15c-.441-1.04-.977-2.284-1.607-3.733-.63-1.48-1.291-3.024-1.984-4.63a319.238 319.238 0 0 0-2.032-4.82c-.693-1.607-1.323-3.071-1.89-4.394a281.719 281.719 0 0 0-.709 11.34 870.666 870.666 0 0 0-.378 10.395h-7.182c.126-2.583.268-5.34.426-8.27.189-2.929.378-5.842.567-8.74.22-2.93.456-5.733.708-8.411.284-2.709.583-5.15.898-7.324h7.04Zm55.174 0v6.284h-9.875v26.46h-7.371v-26.46h-9.876v-6.284h27.122Zm15.605 23.106c0-.914-.205-1.717-.615-2.41-.409-.725-1.118-1.323-2.126-1.796-1.008-.472-2.362-.834-4.063-1.086-1.701-.252-3.843-.378-6.426-.378.346-2.93.63-5.907.85-8.93.221-3.025.394-5.86.52-8.506h17.719v5.906h-11.813a103.505 103.505 0 0 1-.236 3.308 47.818 47.818 0 0 1-.236 2.74c4.599.316 7.985 1.402 10.158 3.26 2.205 1.828 3.308 4.38 3.308 7.655 0 1.512-.268 2.914-.803 4.206a9.052 9.052 0 0 1-2.41 3.354c-1.071.945-2.426 1.686-4.064 2.221-1.606.536-3.496.803-5.67.803-.85 0-1.748-.063-2.693-.189a25.254 25.254 0 0 1-2.693-.425 28.664 28.664 0 0 1-2.315-.52c-.693-.189-1.229-.378-1.607-.567l1.276-5.811c.787.346 1.827.693 3.118 1.04 1.292.314 2.835.472 4.631.472 2.173 0 3.748-.426 4.725-1.276.976-.882 1.465-1.906 1.465-3.071Z" /></symbol><symbol viewBox="0 0 32 32" fill="none" id="ic-rebranding-dmt5-dashboard"><g clip-path="url(#ic-rebranding-dmt5-dashboard_clip0_34862_172797)"><path d="M5.99992 0C2.68625 0 0 2.68625 0 5.99992V6.17424L29.9141 1.45266C28.8633 0.547339 27.4954 0 25.9996 0H5.99992Z" fill="#0A559E" /><path d="M30.5315 2.06772L25.044 31.9996H25.9996C29.3133 31.9996 31.9996 29.3133 31.9996 25.9996V5.99992C31.9996 4.4957 31.446 3.12078 30.5315 2.06772Z" fill="#0A559E" /><path fill-rule="evenodd" clip-rule="evenodd" d="M25.044 31.9996L5.99992 32C2.68625 32 0 29.3137 0 26.0001V6.17424L29.9141 1.45266C30.1344 1.64252 30.3408 1.84812 30.5315 2.06772L25.044 31.9996Z" fill="#0364B9" /><path d="M7.342 11.752C7.486 12.016 7.65 12.344 7.834 12.736C8.026 13.12 8.222 13.54 8.422 13.996C8.63 14.444 8.834 14.904 9.034 15.376C9.234 15.848 9.422 16.292 9.598 16.708C9.774 16.292 9.962 15.848 10.162 15.376C10.362 14.904 10.562 14.444 10.762 13.996C10.97 13.54 11.166 13.12 11.35 12.736C11.542 12.344 11.71 12.016 11.854 11.752H13.558C13.638 12.304 13.71 12.924 13.774 13.612C13.846 14.292 13.906 15.004 13.954 15.748C14.01 16.484 14.058 17.224 14.098 17.968C14.146 18.712 14.186 19.412 14.218 20.068H12.394C12.37 19.26 12.338 18.38 12.298 17.428C12.258 16.476 12.198 15.516 12.118 14.548C11.974 14.884 11.814 15.256 11.638 15.664C11.462 16.072 11.286 16.48 11.11 16.888C10.942 17.296 10.778 17.688 10.618 18.064C10.458 18.432 10.322 18.748 10.21 19.012H8.902C8.79 18.748 8.654 18.432 8.494 18.064C8.334 17.688 8.166 17.296 7.99 16.888C7.822 16.48 7.65 16.072 7.474 15.664C7.298 15.256 7.138 14.884 6.994 14.548C6.914 15.516 6.854 16.476 6.814 17.428C6.774 18.38 6.742 19.26 6.718 20.068H4.894C4.926 19.412 4.962 18.712 5.002 17.968C5.05 17.224 5.098 16.484 5.146 15.748C5.202 15.004 5.262 14.292 5.326 13.612C5.398 12.924 5.474 12.304 5.554 11.752H7.342Z" fill="white" /><path d="M21.3543 11.752V13.348H18.8463V20.068H16.9743V13.348H14.4663V11.752H21.3543Z" fill="white" /><path d="M25.3174 17.62C25.3174 17.388 25.2654 17.184 25.1614 17.008C25.0574 16.824 24.8774 16.672 24.6214 16.552C24.3654 16.432 24.0214 16.34 23.5894 16.276C23.1574 16.212 22.6134 16.18 21.9574 16.18C22.0454 15.436 22.1174 14.68 22.1734 13.912C22.2294 13.144 22.2734 12.424 22.3054 11.752H26.8054V13.252H23.8054C23.7894 13.54 23.7694 13.82 23.7454 14.092C23.7294 14.356 23.7094 14.588 23.6854 14.788C24.8534 14.868 25.7134 15.144 26.2654 15.616C26.8254 16.08 27.1054 16.728 27.1054 17.56C27.1054 17.944 27.0374 18.3 26.9014 18.628C26.7654 18.956 26.5614 19.24 26.2894 19.48C26.0174 19.72 25.6734 19.908 25.2574 20.044C24.8494 20.18 24.3694 20.248 23.8174 20.248C23.6014 20.248 23.3734 20.232 23.1334 20.2C22.9014 20.176 22.6734 20.14 22.4494 20.092C22.2334 20.052 22.0374 20.008 21.8614 19.96C21.6854 19.912 21.5494 19.864 21.4534 19.816L21.7774 18.34C21.9774 18.428 22.2414 18.516 22.5694 18.604C22.8974 18.684 23.2894 18.724 23.7454 18.724C24.2974 18.724 24.6974 18.616 24.9454 18.4C25.1934 18.176 25.3174 17.916 25.3174 17.62Z" fill="white" /></g><defs></defs></symbol><clipPath id="ic-rebranding-dmt5-dashboard_clip0_34862_172797"><rect width="32" height="32" fill="white" /></clipPath><symbol fill="none" viewBox="0 0 345 72" id="ic-rebranding-dxtrade"><path fill="#FF444F" d="M0 13.5C0 6.044 6.044 0 13.5 0h45C65.956 0 72 6.044 72 13.5v45C72 65.956 65.956 72 58.5 72h-45C6.044 72 0 65.956 0 58.5v-45z" /><path fill="#E12E3A" d="M13.5 0C6.044 0 0 6.044 0 13.5v.392L67.308 3.268A13.447 13.447 0 0 0 58.5 0h-45zm55.197 4.652L56.35 72h2.15C65.956 72 72 65.956 72 58.5v-45c0-3.384-1.246-6.478-3.303-8.848z" /><path fill="#fff" d="M21.474 42.898c.232.021.494.042.788.063h1.102c2.457 0 4.274-.62 5.45-1.858 1.197-1.24 1.796-2.95 1.796-5.135 0-2.289-.567-4.021-1.701-5.197-1.134-1.176-2.93-1.764-5.387-1.764-.336 0-.682.01-1.04.031-.357 0-.692.021-1.008.063v13.797zm14.207-6.93c0 1.89-.294 3.539-.882 4.946-.588 1.407-1.428 2.572-2.52 3.496-1.071.924-2.384 1.617-3.938 2.08-1.553.461-3.297.692-5.229.692-.881 0-1.91-.042-3.086-.126a23.682 23.682 0 0 1-3.465-.44V25.352c1.134-.21 2.31-.347 3.527-.41 1.24-.084 2.3-.126 3.182-.126 1.869 0 3.56.21 5.072.63 1.533.42 2.845 1.082 3.937 1.985 1.092.903 1.932 2.058 2.52 3.465.588 1.407.882 3.097.882 5.071z" /><path fill="#fff" d="M49.548 46.899a58.56 58.56 0 0 0-2.016-3.686 40.847 40.847 0 0 0-2.489-3.843c-.294.378-.672.903-1.134 1.575a78.827 78.827 0 0 0-1.354 2.142c-.441.756-.861 1.48-1.26 2.174a24.827 24.827 0 0 0-.882 1.638h-5.607a78.402 78.402 0 0 1 3.213-5.355 188.293 188.293 0 0 1 4.126-5.954l-7.024-10.52h5.953l4.253 6.803 4.158-6.804h5.607l-6.93 10.584c1.764 2.29 3.244 4.41 4.441 6.363 1.197 1.932 2.142 3.56 2.835 4.883h-5.89z" /><path fill="var(--text-general)" fill-rule="evenodd" d="m108.739 19.493-1.772 10.05h-6.152c-5.74 0-11.21 4.65-12.224 10.39l-.43 2.443c-1.009 5.74 2.82 10.39 8.56 10.39h5.131c4.183 0 8.168-3.386 8.904-7.57l4.726-26.787-6.743 1.084zm-4.365 24.756c-.227 1.292-1.39 2.344-2.682 2.344h-3.117c-2.58 0-4.306-2.094-3.854-4.679l.27-1.523c.457-2.58 2.918-4.678 5.498-4.678h5.39l-1.505 8.536z" clip-rule="evenodd" /><path fill="var(--text-general)" d="M156.118 52.768h6.385l4.037-22.902h-6.385l-4.037 22.902zm.213-19.916v-.006l.48-2.716c-6.552-1.688-11.656.058-13.734.919l-3.832 21.724h6.389l3.11-17.643c.959-.191 4.08-.49 7.105.45l.482-2.728z" /><path fill="var(--text-general)" fill-rule="evenodd" d="M130.914 29.541h-4.966c-4.844 0-9.461 3.924-10.314 8.768L114.629 44c-.853 4.844 2.377 8.768 7.221 8.768h10.573l1.085-6.155h-9.937c-1.613 0-2.693-1.306-2.405-2.924l.033-.194h16.02l.915-5.187c.854-4.844-2.377-8.768-7.22-8.768zm.811 8.277-.038.33h-9.526l.052-.292c.287-1.613 1.759-3.032 3.376-3.032h3.721c1.599 0 2.679 1.395 2.415 2.994z" clip-rule="evenodd" /><path fill="var(--text-general)" d="M177.639 44.972c2.899-5.216 6.095-12.06 7.427-15.106h6.395c-2.177 5.788-7.165 15.633-11.998 22.902h-6.39c-2.218-6.919-3.65-16.559-3.924-22.902h6.391c.115 2.07 1.041 9.744 2.099 15.106zm40.946 8.619a88.354 88.354 0 0 0-3.024-5.528 61.175 61.175 0 0 0-3.733-5.765 52.24 52.24 0 0 0-1.701 2.363 117.016 117.016 0 0 0-2.032 3.213 757.67 757.67 0 0 0-1.89 3.26c-.598 1.04-1.039 1.859-1.323 2.457h-8.41a117.586 117.586 0 0 1 4.819-8.032 283.302 283.302 0 0 1 6.19-8.93l-10.537-15.782h8.93l6.379 10.206 6.237-10.206h8.411l-10.395 15.876c2.646 3.433 4.867 6.615 6.662 9.544 1.796 2.898 3.213 5.34 4.253 7.324h-8.836z" /></symbol><symbol viewBox="0 0 32 32" fill="none" id="ic-rebranding-dxtrade-dashboard"><path d="M6 0a6 6 0 00-6 6v.174l29.914-4.721A5.977 5.977 0 0026 0H6zM30.532 2.068L25.044 32H26a6 6 0 006-6V6c0-1.504-.554-2.88-1.468-3.932z" fill="#E12E3A" /><path fill-rule="evenodd" clip-rule="evenodd" d="M25.044 32H6a6 6 0 01-6-6V6.174l29.914-4.721c.22.19.427.395.617.615L25.044 32z" fill="#FF444F" /><path d="M9.544 19.066c.103.01.22.019.35.028h.49c1.092 0 1.9-.275 2.422-.826.532-.55.798-1.311.798-2.282 0-1.017-.252-1.787-.756-2.31-.504-.523-1.302-.784-2.394-.784a7.9 7.9 0 00-.462.014c-.158 0-.308.01-.448.028v6.132zm6.314-3.08c0 .84-.13 1.573-.392 2.198a4.039 4.039 0 01-1.12 1.554c-.476.41-1.06.719-1.75.924-.69.205-1.465.308-2.324.308-.392 0-.85-.019-1.372-.056a10.52 10.52 0 01-1.54-.196v-9.45a12.018 12.018 0 011.568-.182 21.39 21.39 0 011.414-.056c.83 0 1.582.093 2.254.28.682.187 1.265.48 1.75.882a3.92 3.92 0 011.12 1.54c.262.625.392 1.377.392 2.254z" fill="#fff" /><path d="M22.021 20.844c-.27-.541-.569-1.087-.896-1.638-.317-.56-.686-1.13-1.106-1.708-.13.168-.298.401-.504.7-.196.299-.396.616-.602.952-.196.336-.382.658-.56.966-.177.308-.308.55-.392.728H15.47c.411-.756.887-1.55 1.428-2.38.551-.83 1.162-1.713 1.834-2.646l-3.122-4.676h2.646l1.89 3.024 1.848-3.024h2.492l-3.08 4.704a32.63 32.63 0 011.974 2.828c.532.859.952 1.582 1.26 2.17h-2.618z" fill="#fff" /></symbol><symbol fill="none" viewBox="-10 0 160 36" id="ic-rebranding-dxtrade-wordmark"><path fill="#FF444F" fill-rule="evenodd" d="m20.739 1.084-1.772 10.05h-6.152c-5.74 0-11.21 4.65-12.224 10.39l-.43 2.443c-1.009 5.74 2.82 10.39 8.56 10.39h5.131c4.183 0 8.168-3.386 8.904-7.57L27.482 0l-6.743 1.084ZM16.374 25.84c-.227 1.292-1.39 2.344-2.682 2.344h-3.117c-2.58 0-4.306-2.094-3.854-4.679l.27-1.523c.457-2.58 2.919-4.678 5.498-4.678h5.39l-1.505 8.536Z" clip-rule="evenodd" /><path fill="#FF444F" d="M68.118 34.359h6.385l4.037-22.902h-6.385L68.118 34.36Zm.212-19.916.002-.005.479-2.717c-6.552-1.688-11.656.058-13.734.919l-3.832 21.724h6.39l3.109-17.643c.959-.191 4.08-.49 7.105.45l.482-2.728Z" /><path fill="#FF444F" fill-rule="evenodd" d="M42.914 11.133h-4.966c-4.844 0-9.46 3.923-10.314 8.767l-1.005 5.692c-.854 4.844 2.377 8.768 7.22 8.768h10.574l1.085-6.155H35.57c-1.613 0-2.693-1.306-2.405-2.924l.033-.193h16.02l.915-5.188c.854-4.844-2.377-8.767-7.22-8.767Zm.81 8.276-.037.33h-9.526l.052-.292c.287-1.613 1.759-3.032 3.376-3.032h3.721c1.6 0 2.68 1.396 2.415 2.994Z" clip-rule="evenodd" /><path fill="#FF444F" d="M89.638 26.563c2.9-5.216 6.096-12.06 7.428-15.106h6.395c-2.177 5.788-7.165 15.633-11.998 22.902h-6.39c-2.218-6.919-3.65-16.559-3.924-22.902h6.39c.116 2.07 1.042 9.744 2.1 15.106Z" /><path fill="#fff" d="M130.585 35.182a88.352 88.352 0 0 0-3.024-5.528 61.175 61.175 0 0 0-3.733-5.765 52.24 52.24 0 0 0-1.701 2.363 117.016 117.016 0 0 0-2.032 3.213 757.818 757.818 0 0 0-1.89 3.26c-.598 1.04-1.039 1.859-1.323 2.457h-8.41a117.586 117.586 0 0 1 4.819-8.032 283.304 283.304 0 0 1 6.19-8.93L108.944 2.437h8.93l6.379 10.206 6.237-10.206h8.411l-10.395 15.876c2.646 3.433 4.867 6.615 6.662 9.544 1.796 2.898 3.213 5.34 4.253 7.324h-8.836Z" /></symbol><symbol viewBox="0 0 32 32" fill="none" id="ic-rebranding-mt5-cfds"><path d="M26 0H6a6 6 0 0 0-6 6v17.5h32V6a6 6 0 0 0-6-6z" fill="#0364B9" /><path d="M6 0a6 6 0 0 0-6 6v.174l29.914-4.721A5.976 5.976 0 0 0 26 0H6zm26 6c0-1.504-.553-2.88-1.468-3.933L26.602 23.5H32V6z" fill="#0A559E" /><path d="M0 23h32v3a6 6 0 0 1-6 6H6a6 6 0 0 1-6-6v-3z" fill="#FF8C00" /><path d="M7.346 9.684c.144.264.308.592.492.984.192.384.388.804.588 1.26.208.448.412.908.612 1.38l.564 1.332.564-1.332c.2-.472.4-.932.6-1.38.208-.456.404-.876.588-1.26.192-.392.36-.72.504-.984h1.704c.08.552.152 1.172.216 1.86.072.68.132 1.392.18 2.136.056.736.104 1.476.144 2.22.048.744.088 1.444.12 2.1h-1.824c-.024-.808-.056-1.688-.096-2.64-.04-.952-.1-1.912-.18-2.88a517.564 517.564 0 0 1-1.008 2.34 108.944 108.944 0 0 1-.9 2.124H8.906c-.112-.264-.248-.58-.408-.948-.16-.376-.328-.768-.504-1.176-.168-.408-.34-.816-.516-1.224l-.48-1.116c-.08.968-.14 1.928-.18 2.88-.04.952-.072 1.832-.096 2.64H4.898c.032-.656.068-1.356.108-2.1l.144-2.22c.056-.744.116-1.456.18-2.136.072-.688.148-1.308.228-1.86h1.788zm14.012 0v1.596H18.85V18h-1.872v-6.72H14.47V9.684h6.888zm3.964 5.868a1.18 1.18 0 0 0-.156-.612c-.104-.184-.284-.336-.54-.456-.256-.12-.6-.212-1.032-.276a11.46 11.46 0 0 0-1.632-.096c.088-.744.16-1.5.216-2.268.056-.768.1-1.488.132-2.16h4.5v1.5h-3c-.016.288-.036.568-.06.84-.016.264-.036.496-.06.696 1.168.08 2.028.356 2.58.828.56.464.84 1.112.84 1.944 0 .384-.068.74-.204 1.068-.136.328-.34.612-.612.852a2.9 2.9 0 0 1-1.032.564c-.408.136-.888.204-1.44.204-.216 0-.444-.016-.684-.048a6.41 6.41 0 0 1-.684-.108 7.294 7.294 0 0 1-.588-.132 2.309 2.309 0 0 1-.408-.144l.324-1.476c.2.088.464.176.792.264.328.08.72.12 1.176.12.552 0 .952-.108 1.2-.324.248-.224.372-.484.372-.78zM11.014 29.669c-.676 0-1.192-.188-1.548-.564-.352-.376-.528-.91-.528-1.602 0-.344.054-.65.162-.918.108-.272.256-.5.444-.684.188-.188.412-.33.672-.426.26-.096.542-.144.846-.144.176 0 .336.014.48.042.144.024.27.054.378.09a1.678 1.678 0 0 1 .426.186l-.27.756a2.248 2.248 0 0 0-.45-.174 2.1 2.1 0 0 0-.576-.072c-.144 0-.286.024-.426.072a.97.97 0 0 0-.366.234c-.104.104-.188.24-.252.408a1.723 1.723 0 0 0-.096.612c0 .192.02.372.06.54.044.164.112.306.204.426.096.12.22.216.372.288.152.068.336.102.552.102.136 0 .258-.008.366-.024.108-.016.204-.034.288-.054a1.77 1.77 0 0 0 .222-.078l.174-.078.258.75c-.132.08-.318.152-.558.216-.24.064-.518.096-.834.096zm1.995-.084v-4.158h2.784v.786h-1.848v.87h1.644v.786h-1.644v1.716h-.936zm4.381-.762.15.012h.21c.468 0 .814-.118 1.038-.354.228-.236.342-.562.342-.978 0-.436-.108-.766-.324-.99-.216-.224-.558-.336-1.026-.336-.064 0-.13.002-.198.006-.068 0-.132.004-.192.012v2.628zm2.706-1.32c0 .36-.056.674-.168.942a1.73 1.73 0 0 1-.48.666 2.005 2.005 0 0 1-.75.396 3.491 3.491 0 0 1-.996.132c-.168 0-.364-.008-.588-.024a4.51 4.51 0 0 1-.66-.084v-4.05c.216-.04.44-.066.672-.078.236-.016.438-.024.606-.024.356 0 .678.04.966.12.292.08.542.206.75.378.208.172.368.392.48.66.112.268.168.59.168.966zm1.628 1.44c.164 0 .28-.016.348-.048.068-.032.102-.094.102-.186 0-.072-.044-.134-.132-.186a2.31 2.31 0 0 0-.402-.186 4.445 4.445 0 0 1-.384-.162 1.182 1.182 0 0 1-.288-.198.845.845 0 0 1-.186-.282 1.033 1.033 0 0 1-.066-.39c0-.296.11-.53.33-.702.22-.172.522-.258.906-.258.192 0 .376.018.552.054.176.032.316.068.42.108l-.156.696a3.207 3.207 0 0 0-.342-.096 1.802 1.802 0 0 0-.408-.042c-.28 0-.42.078-.42.234 0 .036.006.068.018.096a.225.225 0 0 0 .072.084c.036.024.084.052.144.084.064.028.144.06.24.096.196.072.358.144.486.216.128.068.228.144.3.228.076.08.128.17.156.27.032.1.048.216.048.348 0 .312-.118.548-.354.708-.232.16-.562.24-.99.24-.28 0-.514-.024-.702-.072a2.85 2.85 0 0 1-.384-.12l.15-.726a2.413 2.413 0 0 0 .942.192z" fill="#fff" /></symbol><symbol viewBox="0 0 32 32" fill="none" id="ic-rebranding-mt5-derived-dashboard"><path d="M26 0H6a6 6 0 0 0-6 6v17.5h32V6a6 6 0 0 0-6-6z" fill="#0364B9" /><path d="M6 0a6 6 0 0 0-6 6v.174l29.914-4.721A5.976 5.976 0 0 0 26 0H6zm26 6c0-1.504-.553-2.88-1.468-3.933L26.602 23.5H32V6z" fill="#0A559E" /><path d="M0 23h32v3a6 6 0 0 1-6 6H6a6 6 0 0 1-6-6v-3z" fill="#2A3052" /><path d="M7.342 9.684c.144.264.308.592.492.984.192.384.388.804.588 1.26.208.448.412.908.612 1.38l.564 1.332.564-1.332c.2-.472.4-.932.6-1.38.208-.456.404-.876.588-1.26.192-.392.36-.72.504-.984h1.704c.08.552.152 1.172.216 1.86.072.68.132 1.392.18 2.136.056.736.104 1.476.144 2.22.048.744.088 1.444.12 2.1h-1.824c-.024-.808-.056-1.688-.096-2.64-.04-.952-.1-1.912-.18-2.88a517.564 517.564 0 0 1-1.008 2.34 108.944 108.944 0 0 1-.9 2.124H8.902c-.112-.264-.248-.58-.408-.948-.16-.376-.328-.768-.504-1.176-.168-.408-.34-.816-.516-1.224l-.48-1.116c-.08.968-.14 1.928-.18 2.88-.04.952-.072 1.832-.096 2.64H4.894c.032-.656.068-1.356.108-2.1l.144-2.22c.056-.744.116-1.456.18-2.136.072-.688.148-1.308.228-1.86h1.788zm14.013 0v1.596h-2.508V18h-1.872v-6.72h-2.508V9.684h6.888zm3.963 5.868a1.18 1.18 0 0 0-.156-.612c-.104-.184-.284-.336-.54-.456-.256-.12-.6-.212-1.032-.276a11.46 11.46 0 0 0-1.632-.096c.088-.744.16-1.5.216-2.268.056-.768.1-1.488.132-2.16h4.5v1.5h-3c-.016.288-.036.568-.06.84-.016.264-.036.496-.06.696 1.168.08 2.028.356 2.58.828.56.464.84 1.112.84 1.944 0 .384-.068.74-.204 1.068-.136.328-.34.612-.612.852a2.9 2.9 0 0 1-1.032.564c-.408.136-.888.204-1.44.204-.216 0-.444-.016-.684-.048a6.41 6.41 0 0 1-.684-.108 7.294 7.294 0 0 1-.588-.132 2.309 2.309 0 0 1-.408-.144l.324-1.476c.2.088.464.176.792.264.328.08.72.12 1.176.12.552 0 .952-.108 1.2-.324.248-.224.372-.484.372-.78zM10.871 28.814l.15.012h.21c.468 0 .814-.118 1.038-.354.228-.236.342-.562.342-.978 0-.436-.108-.766-.324-.99-.216-.224-.558-.336-1.026-.336-.064 0-.13.002-.198.006-.068 0-.132.004-.192.012v2.628zm2.706-1.32c0 .36-.056.674-.168.942a1.73 1.73 0 0 1-.48.666 2.005 2.005 0 0 1-.75.396 3.491 3.491 0 0 1-.996.132c-.168 0-.364-.008-.588-.024a4.512 4.512 0 0 1-.66-.084v-4.05c.216-.04.44-.066.672-.078.236-.016.438-.024.606-.024.356 0 .678.04.966.12.292.08.542.206.75.378.208.172.368.392.48.66.112.268.168.59.168.966zm2-2.124c.624 0 1.102.112 1.434.336.332.22.498.564.498 1.032 0 .292-.068.53-.204.714-.132.18-.324.322-.576.426.084.104.172.224.264.36.092.132.182.272.27.42a10.047 10.047 0 0 1 .498.918h-1.05a49.787 49.787 0 0 0-.234-.414 6.822 6.822 0 0 0-.24-.408 7.53 7.53 0 0 0-.24-.372c-.08-.12-.16-.228-.24-.324h-.462v1.518h-.936v-4.098a5.31 5.31 0 0 1 .63-.084 8.2 8.2 0 0 1 .588-.024zm.054.798a2.628 2.628 0 0 0-.336.018v1.128h.264c.352 0 .604-.044.756-.132.152-.088.228-.238.228-.45 0-.204-.078-.348-.234-.432-.152-.088-.378-.132-.678-.132zm3.878 3.408c-.164-.348-.326-.71-.486-1.086-.16-.376-.312-.748-.456-1.116-.144-.368-.278-.72-.402-1.056-.12-.336-.224-.636-.312-.9h1.032l.258.78.288.828.288.792c.092.252.178.47.258.654.076-.184.16-.402.252-.654.096-.252.192-.516.288-.792a96.794 96.794 0 0 0 .552-1.608h.996c-.092.264-.198.564-.318.9a37.712 37.712 0 0 1-.852 2.172c-.16.376-.322.738-.486 1.086h-.9z" fill="#fff" /></symbol><symbol viewBox="0 0 32 32" fill="none" id="ic-rebranding-mt5-financial-dashboard"><path d="M26 0H6a6 6 0 0 0-6 6v17.5h32V6a6 6 0 0 0-6-6z" fill="#0364B9" /><path d="M6 0a6 6 0 0 0-6 6v.174l29.914-4.721A5.976 5.976 0 0 0 26 0H6zm26 6c0-1.504-.553-2.88-1.468-3.933L26.602 23.5H32V6z" fill="#0A559E" /><path d="M0 23h32v3a6 6 0 0 1-6 6H6a6 6 0 0 1-6-6v-3z" fill="#71BD0E" /><path d="M7.342 9.684c.144.264.308.592.492.984.192.384.388.804.588 1.26.208.448.412.908.612 1.38l.564 1.332.564-1.332c.2-.472.4-.932.6-1.38.208-.456.404-.876.588-1.26.192-.392.36-.72.504-.984h1.704c.08.552.152 1.172.216 1.86.072.68.132 1.392.18 2.136.056.736.104 1.476.144 2.22.048.744.088 1.444.12 2.1h-1.824c-.024-.808-.056-1.688-.096-2.64-.04-.952-.1-1.912-.18-2.88a517.564 517.564 0 0 1-1.008 2.34 108.944 108.944 0 0 1-.9 2.124H8.902c-.112-.264-.248-.58-.408-.948-.16-.376-.328-.768-.504-1.176-.168-.408-.34-.816-.516-1.224l-.48-1.116c-.08.968-.14 1.928-.18 2.88-.04.952-.072 1.832-.096 2.64H4.894c.032-.656.068-1.356.108-2.1l.144-2.22c.056-.744.116-1.456.18-2.136.072-.688.148-1.308.228-1.86h1.788zm14.013 0v1.596h-2.508V18h-1.872v-6.72h-2.508V9.684h6.888zm3.963 5.868a1.18 1.18 0 0 0-.156-.612c-.104-.184-.284-.336-.54-.456-.256-.12-.6-.212-1.032-.276a11.46 11.46 0 0 0-1.632-.096c.088-.744.16-1.5.216-2.268.056-.768.1-1.488.132-2.16h4.5v1.5h-3c-.016.288-.036.568-.06.84-.016.264-.036.496-.06.696 1.168.08 2.028.356 2.58.828.56.464.84 1.112.84 1.944 0 .384-.068.74-.204 1.068-.136.328-.34.612-.612.852a2.9 2.9 0 0 1-1.032.564c-.408.136-.888.204-1.44.204-.216 0-.444-.016-.684-.048a6.41 6.41 0 0 1-.684-.108 7.294 7.294 0 0 1-.588-.132 2.309 2.309 0 0 1-.408-.144l.324-1.476c.2.088.464.176.792.264.328.08.72.12 1.176.12.552 0 .952-.108 1.2-.324.248-.224.372-.484.372-.78zM11.54 29.58v-4.16h2.784v.786h-1.848v.87h1.644v.786h-1.644v1.716h-.936zm3.446-4.159h.935v4.158h-.935v-4.158zm4.688 4.159a20.923 20.923 0 0 0-.87-1.41 14.33 14.33 0 0 0-.996-1.315v2.724h-.924v-4.158h.762c.132.132.278.294.438.486.16.192.322.398.486.618.168.216.334.442.498.678.164.232.318.456.462.672v-2.454h.93v4.158h-.786z" fill="#fff" /></symbol><symbol viewBox="0 0 32 32" fill="none" id="ic-rebranding-mt5-logo"><path d="M0 6a6 6 0 016-6h20a6 6 0 016 6v20a6 6 0 01-6 6H6a6 6 0 01-6-6V6z" fill="#0364B9" /><path d="M6 0a6 6 0 00-6 6v.174l29.914-4.721A5.976 5.976 0 0026 0H6zM30.532 2.068L25.044 32H26a6 6 0 006-6V6c0-1.504-.553-2.88-1.468-3.932z" fill="#0A559E" /><path d="M7.342 11.752c.144.264.308.592.492.984.192.384.388.804.588 1.26.208.448.412.908.612 1.38l.564 1.332.564-1.332c.2-.472.4-.932.6-1.38.208-.456.404-.876.588-1.26.192-.392.36-.72.504-.984h1.704c.08.552.152 1.172.216 1.86.072.68.132 1.392.18 2.136.056.736.104 1.476.144 2.22.048.744.088 1.444.12 2.1h-1.824c-.024-.808-.056-1.688-.096-2.64-.04-.952-.1-1.912-.18-2.88a517.564 517.564 0 01-1.008 2.34 108.944 108.944 0 01-.9 2.124H8.902c-.112-.264-.248-.58-.408-.948-.16-.376-.328-.768-.504-1.176-.168-.408-.34-.816-.516-1.224l-.48-1.116c-.08.968-.14 1.928-.18 2.88-.04.952-.072 1.832-.096 2.64H4.894c.032-.656.068-1.356.108-2.1l.144-2.22c.056-.744.116-1.456.18-2.136.072-.688.148-1.308.228-1.86h1.788zM21.354 11.752v1.596h-2.508v6.72h-1.872v-6.72h-2.508v-1.596h6.888zM25.317 17.62a1.18 1.18 0 00-.156-.612c-.104-.184-.284-.336-.54-.456-.256-.12-.6-.212-1.032-.276a11.46 11.46 0 00-1.632-.096c.088-.744.16-1.5.216-2.268.056-.768.1-1.488.132-2.16h4.5v1.5h-3c-.016.288-.036.568-.06.84-.016.264-.036.496-.06.696 1.168.08 2.028.356 2.58.828.56.464.84 1.112.84 1.944 0 .384-.068.74-.204 1.068-.136.328-.34.612-.612.852a2.9 2.9 0 01-1.032.564c-.408.136-.888.204-1.44.204-.216 0-.444-.016-.684-.048a6.41 6.41 0 01-.684-.108 7.294 7.294 0 01-.588-.132 2.309 2.309 0 01-.408-.144l.324-1.476c.2.088.464.176.792.264.328.08.72.12 1.176.12.552 0 .952-.108 1.2-.324.248-.224.372-.484.372-.78z" fill="#fff" /></symbol><symbol viewBox="0 0 32 32" fill="none" id="ic-rebranding-mt5-swap-free"><path d="M26 0H6a6 6 0 0 0-6 6v17.5h32V6a6 6 0 0 0-6-6z" fill="#0364B9" /><path d="M6 0a6 6 0 0 0-6 6v.174l29.914-4.721A5.976 5.976 0 0 0 26 0H6zm26 6c0-1.504-.553-2.88-1.468-3.933L26.602 23.5H32V6z" fill="#0A559E" /><path d="M0 23h32v3a6 6 0 0 1-6 6H6a6 6 0 0 1-6-6v-3z" fill="#0CC" /><path d="M7.346 9.684c.144.264.308.592.492.984.192.384.388.804.588 1.26.208.448.412.908.612 1.38l.564 1.332.564-1.332c.2-.472.4-.932.6-1.38.208-.456.404-.876.588-1.26.192-.392.36-.72.504-.984h1.704c.08.552.152 1.172.216 1.86.072.68.132 1.392.18 2.136.056.736.104 1.476.144 2.22.048.744.088 1.444.12 2.1h-1.824c-.024-.808-.056-1.688-.096-2.64-.04-.952-.1-1.912-.18-2.88a517.564 517.564 0 0 1-1.008 2.34 108.944 108.944 0 0 1-.9 2.124H8.906c-.112-.264-.248-.58-.408-.948-.16-.376-.328-.768-.504-1.176-.168-.408-.34-.816-.516-1.224l-.48-1.116c-.08.968-.14 1.928-.18 2.88-.04.952-.072 1.832-.096 2.64H4.898c.032-.656.068-1.356.108-2.1l.144-2.22c.056-.744.116-1.456.18-2.136.072-.688.148-1.308.228-1.86h1.788zm14.012 0v1.596H18.85V18h-1.872v-6.72H14.47V9.684h6.888zm3.964 5.868a1.18 1.18 0 0 0-.156-.612c-.104-.184-.284-.336-.54-.456-.256-.12-.6-.212-1.032-.276a11.46 11.46 0 0 0-1.632-.096c.088-.744.16-1.5.216-2.268.056-.768.1-1.488.132-2.16h4.5v1.5h-3c-.016.288-.036.568-.06.84-.016.264-.036.496-.06.696 1.168.08 2.028.356 2.58.828.56.464.84 1.112.84 1.944 0 .384-.068.74-.204 1.068-.136.328-.34.612-.612.852a2.9 2.9 0 0 1-1.032.564c-.408.136-.888.204-1.44.204-.216 0-.444-.016-.684-.048a6.41 6.41 0 0 1-.684-.108 7.294 7.294 0 0 1-.588-.132 2.309 2.309 0 0 1-.408-.144l.324-1.476c.2.088.464.176.792.264.328.08.72.12 1.176.12.552 0 .952-.108 1.2-.324.248-.224.372-.484.372-.78zM11.31 28.871c.131 0 .24-.01.323-.03a.689.689 0 0 0 .21-.09.32.32 0 0 0 .108-.138c.02-.052.03-.11.03-.174 0-.136-.063-.248-.191-.336-.128-.092-.348-.19-.66-.294a5.761 5.761 0 0 1-.409-.162 1.633 1.633 0 0 1-.366-.234 1.17 1.17 0 0 1-.264-.342 1.09 1.09 0 0 1-.102-.492c0-.192.036-.364.108-.516.072-.156.175-.288.306-.396a1.37 1.37 0 0 1 .48-.246c.189-.06.4-.09.637-.09a2.59 2.59 0 0 1 1.23.288l-.27.738a2.33 2.33 0 0 0-.39-.156 1.583 1.583 0 0 0-.51-.072c-.225 0-.386.032-.486.096-.096.06-.144.154-.144.282 0 .076.018.14.054.192a.56.56 0 0 0 .15.144c.068.04.143.078.228.114l.287.102c.216.08.404.16.564.24.16.076.292.166.396.27a.972.972 0 0 1 .24.366c.053.14.079.31.079.51 0 .388-.136.69-.409.906-.271.212-.681.318-1.23.318-.183 0-.35-.012-.497-.036a2.485 2.485 0 0 1-.69-.18 2.411 2.411 0 0 1-.205-.102l.264-.744c.125.068.277.13.457.186a2.5 2.5 0 0 0 .671.078zm5.09-3c.047.164.1.35.155.558l.186.636.204.66c.068.22.134.424.198.612.052-.204.104-.426.156-.666.056-.24.108-.488.156-.744s.094-.51.138-.762c.048-.256.092-.502.132-.738h.972a40.98 40.98 0 0 1-.486 2.118c-.18.716-.376 1.396-.588 2.04h-.858a28.26 28.26 0 0 1-.408-1.206c-.132-.424-.262-.848-.39-1.272l-.384 1.272c-.128.42-.262.822-.402 1.206h-.858a32.003 32.003 0 0 1-.594-2.04c-.18-.716-.34-1.422-.48-2.118h1.014a43.016 43.016 0 0 0 .282 1.5c.052.256.104.504.156.744.056.24.112.462.168.666.072-.196.142-.404.21-.624.068-.22.134-.44.198-.66.064-.22.122-.432.174-.636l.15-.546h.798zm2.899 3.714v-4.158h2.784v.786h-1.848v.87h1.643v.786h-1.643v1.716h-.936z" fill="#fff" /></symbol><symbol fill="none" viewBox="0 0 345 72" id="ic-rebranding-smarttrader"><path fill="#384177" d="M0 13.5C0 6.044 6.044 0 13.5 0h45C65.956 0 72 6.044 72 13.5v45C72 65.956 65.956 72 58.5 72h-45C6.044 72 0 65.956 0 58.5v-45Z" /><path fill="#2A3052" d="M13.5 0C6.044 0 0 6.044 0 13.5v.392L67.308 3.268A13.447 13.447 0 0 0 58.5 0h-45Zm55.197 4.652L56.35 72h2.15C65.956 72 72 65.956 72 58.5v-45c0-3.384-1.246-6.478-3.303-8.848Z" /><path fill="#fff" d="M26.463 43.198c.693 0 1.26-.053 1.701-.158.462-.126.83-.283 1.103-.472.273-.21.462-.452.567-.725.105-.273.157-.577.157-.913 0-.714-.336-1.302-1.008-1.764-.672-.483-1.827-.998-3.465-1.544a30.247 30.247 0 0 1-2.142-.85 8.576 8.576 0 0 1-1.921-1.229 6.14 6.14 0 0 1-1.386-1.795c-.357-.714-.536-1.575-.536-2.583 0-1.008.19-1.911.567-2.71a5.78 5.78 0 0 1 1.607-2.078c.693-.567 1.533-.998 2.52-1.292.987-.315 2.1-.472 3.339-.472 1.47 0 2.74.157 3.811.472 1.071.315 1.953.662 2.646 1.04l-1.417 3.874a12.235 12.235 0 0 0-2.048-.819c-.735-.252-1.627-.378-2.677-.378-1.176 0-2.027.168-2.552.504-.504.315-.756.809-.756 1.48 0 .4.095.736.284 1.009.189.273.451.525.787.756.357.21.756.41 1.197.598.462.168.966.347 1.512.536 1.134.42 2.121.84 2.961 1.26.84.399 1.533.871 2.08 1.417a5.101 5.101 0 0 1 1.26 1.922c.272.735.409 1.627.409 2.677 0 2.037-.714 3.623-2.142 4.757-1.428 1.113-3.58 1.67-6.458 1.67-.966 0-1.837-.064-2.614-.19a15.846 15.846 0 0 1-2.08-.41 13.045 13.045 0 0 1-1.543-.535c-.42-.189-.777-.367-1.07-.535l1.385-3.906c.651.357 1.45.682 2.394.976.966.273 2.142.41 3.528.41Zm26.382-18.081v4.19H46.26v17.64h-4.914v-17.64h-6.583v-4.19h18.08Z" /><path fill="var(--text-general)" d="M98.961 48.38c1.04 0 1.89-.08 2.552-.237.693-.189 1.244-.425 1.653-.709.41-.314.693-.677.851-1.086.157-.41.236-.867.236-1.37 0-1.072-.504-1.953-1.512-2.647-1.008-.724-2.74-1.496-5.198-2.315a45.37 45.37 0 0 1-3.213-1.276 12.863 12.863 0 0 1-2.882-1.842 9.21 9.21 0 0 1-2.079-2.694c-.535-1.07-.803-2.362-.803-3.874s.284-2.866.85-4.063a8.67 8.67 0 0 1 2.41-3.119c1.04-.85 2.3-1.496 3.78-1.937 1.48-.473 3.15-.709 5.009-.709 2.205 0 4.111.236 5.717.709 1.607.472 2.93.992 3.969 1.559l-2.126 5.812a18.367 18.367 0 0 0-3.071-1.229c-1.103-.378-2.442-.567-4.017-.567-1.764 0-3.04.252-3.827.756-.756.473-1.134 1.213-1.134 2.221 0 .598.142 1.102.425 1.512.284.41.677.788 1.181 1.134.536.315 1.135.614 1.796.898.693.252 1.449.52 2.268.803 1.701.63 3.182 1.26 4.442 1.89 1.26.599 2.299 1.307 3.118 2.126a7.64 7.64 0 0 1 1.89 2.883c.41 1.102.614 2.44.614 4.016 0 3.055-1.071 5.434-3.213 7.135-2.142 1.669-5.37 2.504-9.686 2.504-1.449 0-2.756-.095-3.922-.284a23.769 23.769 0 0 1-3.118-.614 19.568 19.568 0 0 1-2.316-.803A18.982 18.982 0 0 1 88 52.16l2.079-5.86c.977.536 2.173 1.024 3.591 1.465 1.449.41 3.213.614 5.292.614Zm29.391-7.56c0-2.269-.299-3.875-.898-4.82-.567-.945-1.559-1.417-2.976-1.417-.441 0-.898.031-1.371.094-.472.032-.929.079-1.37.142v19.183h-7.04V30a35.838 35.838 0 0 1 2.079-.472 30.566 30.566 0 0 1 2.551-.473 26.967 26.967 0 0 1 2.788-.33 28.006 28.006 0 0 1 2.788-.142c1.795 0 3.244.236 4.347.709 1.134.44 2.063.976 2.788 1.606 1.008-.724 2.157-1.291 3.449-1.701 1.323-.41 2.536-.614 3.638-.614 1.985 0 3.607.283 4.867.85 1.291.536 2.315 1.308 3.071 2.316.756 1.007 1.276 2.204 1.559 3.59.284 1.386.426 2.93.426 4.631v14.033h-7.041V40.82c0-2.268-.299-3.874-.897-4.819-.567-.945-1.56-1.417-2.977-1.417-.378 0-.914.094-1.607.283-.661.189-1.212.425-1.653.709.22.724.362 1.496.425 2.315.063.788.094 1.638.094 2.551v13.561h-7.04V40.82Zm34.223 8.268c.693 0 1.355-.016 1.985-.047a13.81 13.81 0 0 0 1.512-.142V43.56a13.03 13.03 0 0 0-1.276-.189 14.21 14.21 0 0 0-1.559-.095c-.662 0-1.292.048-1.89.142a4.456 4.456 0 0 0-1.512.425c-.441.221-.788.52-1.04.898s-.378.85-.378 1.418c0 1.102.363 1.874 1.087 2.315.756.41 1.78.614 3.071.614Zm-.567-20.6c2.079 0 3.812.236 5.198.708 1.386.473 2.488 1.15 3.307 2.032.851.882 1.449 1.953 1.796 3.213.346 1.26.52 2.661.52 4.205v14.648c-1.008.22-2.41.472-4.206.756-1.795.315-3.969.472-6.52.472-1.607 0-3.071-.142-4.394-.425-1.292-.284-2.41-.74-3.355-1.37a6.557 6.557 0 0 1-2.174-2.552c-.504-1.04-.756-2.315-.756-3.827 0-1.45.284-2.678.851-3.686a6.923 6.923 0 0 1 2.362-2.41c.977-.598 2.095-1.023 3.355-1.275a17.813 17.813 0 0 1 3.922-.425c.913 0 1.717.047 2.41.141.724.063 1.307.158 1.748.284v-.662c0-1.197-.362-2.157-1.087-2.882-.724-.724-1.984-1.087-3.78-1.087a22.11 22.11 0 0 0-3.544.284c-1.165.157-2.173.393-3.024.709l-.897-5.67c.409-.127.913-.253 1.512-.378.63-.158 1.307-.284 2.031-.378a24.81 24.81 0 0 1 2.268-.284 21.418 21.418 0 0 1 2.457-.142Zm29.803 6.898a37.363 37.363 0 0 0-2.221-.473 12.623 12.623 0 0 0-2.741-.283c-.441 0-.976.047-1.606.142-.599.063-1.055.141-1.37.236v18.994h-7.041v-23.53c1.26-.441 2.741-.85 4.442-1.229 1.732-.41 3.654-.614 5.764-.614.378 0 .835.031 1.371.095.535.031 1.071.094 1.606.189.536.063 1.071.157 1.607.283.535.095.992.22 1.37.378l-1.181 5.812Zm2.356-12.427 7.041-1.134v7.324h8.457v5.859h-8.457v8.741c0 1.48.252 2.662.756 3.544.535.882 1.59 1.323 3.165 1.323.756 0 1.528-.063 2.316-.19a13.279 13.279 0 0 0 2.22-.614l.993 5.482a20.14 20.14 0 0 1-2.835.897c-1.04.252-2.316.378-3.828.378-1.921 0-3.512-.252-4.772-.756-1.26-.535-2.268-1.26-3.024-2.173-.756-.945-1.291-2.08-1.606-3.402-.284-1.323-.426-2.788-.426-4.395V22.96Zm43.628-1.701v6.284h-9.875v26.46h-7.371v-26.46h-9.876v-6.284h27.122Z" /><path fill="var(--text-general)" d="M251.399 35.386a37.28 37.28 0 0 0-2.22-.473 12.623 12.623 0 0 0-2.741-.283c-.441 0-.976.047-1.606.142-.599.063-1.056.141-1.371.236v18.994h-7.04v-23.53c1.26-.441 2.741-.85 4.442-1.229 1.732-.41 3.654-.614 5.764-.614.378 0 .835.031 1.37.095a13.96 13.96 0 0 1 1.607.189 14.3 14.3 0 0 1 1.606.283c.536.095.993.22 1.371.378l-1.182 5.812Zm11.629 13.702c.693 0 1.354-.016 1.984-.047a13.81 13.81 0 0 0 1.512-.142V43.56a12.951 12.951 0 0 0-1.275-.189 14.213 14.213 0 0 0-1.56-.095c-.661 0-1.291.048-1.89.142a4.456 4.456 0 0 0-1.512.425c-.441.221-.787.52-1.039.898-.252.378-.378.85-.378 1.418 0 1.102.362 1.874 1.087 2.315.756.41 1.779.614 3.071.614Zm-.567-20.6c2.079 0 3.811.236 5.197.708 1.386.473 2.489 1.15 3.308 2.032.85.882 1.449 1.953 1.795 3.213.347 1.26.52 2.661.52 4.205v14.648c-1.008.22-2.41.472-4.205.756-1.796.315-3.969.472-6.521.472-1.606 0-3.071-.142-4.394-.425-1.291-.284-2.41-.74-3.355-1.37a6.555 6.555 0 0 1-2.173-2.552c-.504-1.04-.756-2.315-.756-3.827 0-1.45.283-2.678.85-3.686a6.926 6.926 0 0 1 2.363-2.41c.976-.598 2.095-1.023 3.355-1.275a17.81 17.81 0 0 1 3.921-.425c.914 0 1.717.047 2.41.141.725.063 1.307.158 1.748.284v-.662c0-1.197-.362-2.157-1.086-2.882-.725-.724-1.985-1.087-3.78-1.087-1.197 0-2.379.095-3.544.284-1.166.157-2.174.393-3.024.709l-.898-5.67c.41-.127.914-.253 1.512-.378.63-.158 1.307-.284 2.032-.378.724-.127 1.48-.221 2.268-.284a21.418 21.418 0 0 1 2.457-.142Zm20.825 12.898c0 2.174.488 3.922 1.464 5.245.977 1.323 2.426 1.985 4.347 1.985.63 0 1.213-.016 1.749-.047a22.89 22.89 0 0 0 1.323-.19V35.575c-.441-.284-1.024-.52-1.749-.709a8.04 8.04 0 0 0-2.126-.283c-3.339 0-5.008 2.267-5.008 6.803ZM299.209 53.2c-.63.189-1.355.378-2.174.567-.819.157-1.685.3-2.598.425a36.61 36.61 0 0 1-2.741.284c-.913.094-1.795.142-2.646.142-2.047 0-3.874-.3-5.481-.898-1.606-.599-2.961-1.45-4.063-2.552-1.103-1.134-1.953-2.488-2.552-4.063-.567-1.607-.85-3.402-.85-5.387 0-2.016.252-3.827.756-5.434.504-1.638 1.228-3.023 2.173-4.157a9.352 9.352 0 0 1 3.449-2.6c1.386-.598 2.961-.897 4.725-.897.977 0 1.843.095 2.599.284.788.189 1.575.456 2.363.803V18.47l7.04-1.134V53.2Zm3.048-11.436c0-2.205.331-4.126.993-5.764.693-1.67 1.59-3.056 2.693-4.158a11.153 11.153 0 0 1 3.78-2.504 12.09 12.09 0 0 1 4.441-.85c3.528 0 6.316 1.086 8.364 3.26 2.047 2.141 3.071 5.307 3.071 9.497 0 .41-.016.866-.047 1.37a77.51 77.51 0 0 1-.095 1.276h-15.97c.157 1.449.834 2.599 2.031 3.449 1.197.85 2.804 1.276 4.82 1.276 1.291 0 2.551-.11 3.78-.331 1.26-.252 2.284-.551 3.071-.898l.945 5.718c-.378.189-.882.378-1.512.567-.63.189-1.339.346-2.126.472-.756.157-1.575.284-2.457.378a24.82 24.82 0 0 1-2.646.142c-2.237 0-4.19-.331-5.859-.992-1.638-.662-3.008-1.56-4.111-2.694-1.071-1.165-1.874-2.535-2.41-4.11-.504-1.576-.756-3.276-.756-5.104Zm16.538-2.693a6.621 6.621 0 0 0-.331-1.748 3.89 3.89 0 0 0-.803-1.512c-.347-.441-.803-.803-1.37-1.087-.536-.283-1.213-.425-2.032-.425-.788 0-1.465.142-2.032.425a3.945 3.945 0 0 0-1.417 1.04c-.378.44-.678.96-.898 1.559-.189.567-.331 1.15-.425 1.748h9.308Zm24.853-3.685a37.363 37.363 0 0 0-2.221-.473 12.623 12.623 0 0 0-2.741-.283c-.441 0-.976.047-1.606.142-.599.063-1.055.141-1.37.236v18.994h-7.041v-23.53c1.26-.441 2.741-.85 4.442-1.229 1.732-.41 3.654-.614 5.764-.614.378 0 .835.031 1.371.095.535.031 1.071.094 1.606.189.536.063 1.071.157 1.607.283.535.095.992.22 1.37.378l-1.181 5.812Z" /></symbol><symbol fill="none" viewBox="0 0 32 32" id="ic-rebranding-smarttrader-dashboard"><path fill="#384177" d="M0 6a6 6 0 0 1 6-6h20a6 6 0 0 1 6 6v20a6 6 0 0 1-6 6H6a6 6 0 0 1-6-6V6Z" /><path fill="#2A3052" d="M6 0a6 6 0 0 0-6 6v.174l29.914-4.721A5.976 5.976 0 0 0 26 0H6ZM30.532 2.068 25.044 32H26a6 6 0 0 0 6-6V6c0-1.504-.553-2.88-1.468-3.932Z" /><path fill="#fff" d="M11.761 19.199c.309 0 .56-.023.757-.07.205-.056.368-.126.49-.21a.746.746 0 0 0 .252-.322c.046-.121.07-.257.07-.406 0-.317-.15-.579-.448-.784-.3-.215-.813-.443-1.54-.686a13.443 13.443 0 0 1-.953-.378 3.81 3.81 0 0 1-.853-.546 2.729 2.729 0 0 1-.616-.798c-.16-.317-.238-.7-.238-1.148 0-.448.084-.85.252-1.204a2.57 2.57 0 0 1 .714-.924 3.178 3.178 0 0 1 1.12-.574c.438-.14.933-.21 1.483-.21.654 0 1.219.07 1.694.21.476.14.868.294 1.176.462l-.63 1.722a5.442 5.442 0 0 0-.91-.364c-.326-.112-.723-.168-1.19-.168-.522 0-.9.075-1.133.224-.224.14-.336.36-.336.658 0 .177.041.327.125.448.085.121.201.233.35.336.16.093.336.182.533.266.205.075.429.154.671.238.504.187.943.373 1.316.56.374.177.682.387.925.63.252.243.438.527.56.854.12.327.182.723.182 1.19 0 .905-.318 1.61-.952 2.114-.635.495-1.592.742-2.87.742a7.3 7.3 0 0 1-1.162-.084 7.044 7.044 0 0 1-.924-.182 5.804 5.804 0 0 1-.686-.238 5.615 5.615 0 0 1-.476-.238l.616-1.736c.289.159.644.303 1.063.434.43.121.953.182 1.569.182ZM23.486 11.163v1.862h-2.925v7.84h-2.184v-7.84H15.45v-1.862h8.035Z" /></symbol></defs></svg>